M48
INCH
T01C0.015
T02C0.024
T03C0.0354
T04C0.0394
T05C0.04
T06C0.0433
T07C0.052
T08C0.084
T09C0.1102
%
T01
X+007683Y+006708
X+007913Y+007739
X+007553Y+007854
X+007268Y+008461
X+007913Y+009983
X+007553Y+010483
X+007241Y+011653
X+007346Y+012714
X+006696Y+013974
X+006141Y+014619
X+007758Y+014224
X+009055Y+013609
X+009031Y+012939
X+009512Y+014224
X+012176Y+013609
X+011902Y+012496
X+011283Y+010940
X+012014Y+010059
X+012554Y+010045
X+013253Y+009779
X+013389Y+009025
X+013831Y+008561
X+014545Y+009611
X+014290Y+009865
X+014284Y+011169
X+013253Y+010936
X+013460Y+013348
X+014034Y+013439
X+014284Y+014265
X+015751Y+014419
X+016107Y+013474
X+016250Y+012847
X+017196Y+012192
X+017871Y+012530
X+017371Y+013474
X+017369Y+013839
X+016874Y+014325
X+018121Y+014269
X+018972Y+013909
X+018695Y+015958
X+017878Y+017862
X+017637Y+018753
X+017953Y+019166
X+018476Y+019045
X+016821Y+019912
X+016878Y+020624
X+016174Y+020741
X+016571Y+021864
X+016358Y+022421
X+017106Y+022563
X+017709Y+022342
X+018551Y+022096
X+018360Y+023012
X+017740Y+023486
X+017007Y+023486
X+015871Y+023943
X+015871Y+024419
X+015736Y+023417
X+015005Y+023079
X+014416Y+022592
X+013890Y+023113
X+013514Y+021760
X+013444Y+020421
X+014525Y+020529
X+014963Y+020529
X+015005Y+021910
X+014547Y+018708
X+014370Y+017878
X+014992Y+017518
X+014901Y+016976
X+014901Y+016514
X+015497Y+015961
X+015497Y+017768
X+015751Y+018098
X+015857Y+018458
X+015497Y+018708
X+016611Y+018736
X+016560Y+018098
X+013841Y+016976
X+013149Y+017878
X+009727Y+021389
X+010465Y+023780
X+011282Y+023452
X+013236Y+025858
X+013430Y+026325
X+013871Y+025469
X+014160Y+025241
X+013357Y+027447
X+011989Y+027930
X+011790Y+028875
X+012488Y+029494
X+012439Y+030409
X+012429Y+031279
X+013433Y+031784
X+013687Y+031529
X+014144Y+031279
X+015042Y+031389
X+015042Y+031029
X+015485Y+030625
X+015206Y+030317
X+015951Y+029662
X+015286Y+028776
X+014785Y+029098
X+014215Y+028875
X+014034Y+029479
X+015962Y+031288
X+016522Y+031220
X+016812Y+031513
X+017361Y+031437
X+017512Y+030686
X+016730Y+030586
X+017294Y+029662
X+017716Y+029240
X+018005Y+029398
X+018389Y+030293
X+018389Y+031080
X+016929Y+032151
X+016460Y+032076
X+015832Y+032066
X+014932Y+032271
X+014636Y+032532
X+014222Y+034409
X+014608Y+034848
X+014249Y+035049
X+015037Y+034975
X+015037Y+035924
X+015146Y+036284
X+014222Y+036581
X+013463Y+036831
X+013555Y+037246
X+012576Y+038786
X+012146Y+038698
X+011880Y+038338
X+012240Y+039272
X+011850Y+039805
X+011382Y+040259
X+011880Y+040464
X+012240Y+040714
X+012648Y+040104
X+013160Y+039744
X+012904Y+039490
X+013416Y+039165
X+013927Y+040714
X+014537Y+040975
X+015030Y+041266
X+014927Y+041773
X+015948Y+042028
X+016203Y+041773
X+016459Y+042172
X+016971Y+042172
X+017518Y+041994
X+017516Y+043301
X+017227Y+043745
X+016715Y+043895
X+016459Y+043555
X+016161Y+043771
X+015692Y+043704
X+015947Y+043301
X+016821Y+043354
X+016971Y+044424
X+017549Y+044976
X+017841Y+044064
X+018478Y+043745
X+018478Y+044424
X+018972Y+045715
X+015963Y+044518
X+015051Y+044565
X+014287Y+044462
X+014287Y+044064
X+013923Y+044164
X+013416Y+044569
X+012904Y+044462
X+012382Y+044167
X+012648Y+043083
X+012532Y+042573
X+012136Y+042573
X+011880Y+042832
X+012369Y+042176
X+013160Y+042323
X+013672Y+042573
X+014897Y+042832
X+016193Y+040603
X+016449Y+040009
X+016715Y+039490
X+016971Y+039744
X+017227Y+040104
X+017516Y+039415
X+017516Y+038866
X+017841Y+038611
X+017519Y+038082
X+017841Y+037606
X+018478Y+037321
X+018478Y+038653
X+016742Y+038304
X+016982Y+037627
X+016557Y+037583
X+016203Y+036831
X+017116Y+035818
X+016263Y+035411
X+016543Y+034279
X+017353Y+033587
X+018006Y+033080
X+018796Y+032973
X+017866Y+034355
X+018116Y+034715
X+015948Y+038361
X+015541Y+038338
X+015147Y+038786
X+015543Y+040295
X+018688Y+041073
X+011080Y+039499
X+010351Y+039958
X+010101Y+040458
X+010351Y+040818
X+009363Y+040139
X+008822Y+040462
X+008376Y+040818
X+007876Y+041120
X+007281Y+041120
X+006818Y+041668
X+006383Y+041822
X+006027Y+041635
X+005696Y+041120
X+005319Y+040565
X+004848Y+040554
X+004517Y+040176
X+006018Y+039964
X+007028Y+039308
X+007876Y+038936
X+008802Y+038936
X+009623Y+039382
X+010146Y+038380
X+010651Y+038519
X+010896Y+036581
X+010414Y+035116
X+010414Y+034223
X+009473Y+035116
X+008363Y+035534
X+008381Y+035924
X+008381Y+036742
X+007559Y+035571
X+007031Y+035020
X+006641Y+034721
X+007517Y+034149
X+007533Y+033013
X+007031Y+032928
X+006641Y+033158
X+006641Y+032284
X+007031Y+031134
X+008844Y+030627
X+008844Y+032034
X+010414Y+032570
X+011791Y+032539
X+011989Y+033176
X+013433Y+034223
X+012772Y+035116
X+013111Y+035359
X+011081Y+031279
X+011081Y+030394
X+008223Y+028878
X+008160Y+028500
X+007642Y+027056
X+006944Y+027017
X+006508Y+027024
X+005145Y+028490
X+005150Y+028866
X+005134Y+030168
X+005082Y+035913
X+005209Y+036655
X+004272Y+036465
X+006343Y+037211
X+006641Y+036335
X+007037Y+037962
X+008126Y+039848
X+009003Y+041127
X+009363Y+042007
X+009003Y+042257
X+007907Y+043172
X+007592Y+042812
X+007281Y+043172
X+006951Y+042488
X+006383Y+043128
X+005961Y+042619
X+004826Y+043647
X+004268Y+042723
X+006887Y+044666
X+008466Y+044004
X+008751Y+043725
X+009631Y+044317
X+010394Y+044777
X+010786Y+044212
X+010744Y+042907
X+010537Y+042552
X+017294Y+028577
X+016781Y+028177
X+016802Y+025556
X+017323Y+025241
X+017791Y+025556
X+018226Y+024904
X+018096Y+024465
X+007977Y+023451
X+004473Y+022176
X+004488Y+020306
X+007361Y+018977
X+008156Y+018897
X+008087Y+017710
X+009031Y+011254
X+009023Y+009942
X+009183Y+008024
X+009639Y+007739
X+008845Y+006594
X+011506Y+007310
X+011943Y+007863
X+012156Y+006636
X+013530Y+006719
X+016616Y+007054
X+017324Y+008327
X+017713Y+009244
X+015811Y+009279
X+015735Y+009865
X+016087Y+010657
X+015709Y+011776
X+018132Y+007301
X+017666Y+004681
X+005745Y+004616
X+005385Y+006851
T02
X+018616Y+036832
X+018116Y+036832
X+018116Y+036332
X+018616Y+036332
X+017616Y+036332
X+017616Y+036832
X+017116Y+036832
X+016616Y+036832
X+016616Y+036332
X+017116Y+036332
T03
X+015146Y+037693
X+014146Y+037693
X+013146Y+037693
X+012146Y+037693
X+011146Y+037693
X+010146Y+037693
X+009146Y+037693
X+008146Y+037693
T04
X+012544Y+027554
X+011564Y+027551
X+010584Y+027554
X+007734Y+030627
X+006750Y+030627
X+005766Y+030627
X+005766Y+036335
X+007734Y+036335
X+007658Y+024479
X+006678Y+024476
X+005698Y+024479
X+005698Y+018329
X+006678Y+018326
X+007658Y+018329
X+007658Y+012179
X+006678Y+012176
X+005698Y+012179
X+010584Y+009104
X+011564Y+009101
X+012544Y+009104
X+007658Y+006029
X+006678Y+006026
X+005698Y+006029
T05
X+014226Y+021279
X+011865Y+020900
X+011865Y+019900
X+011865Y+018900
X+010865Y+018900
X+010865Y+019900
X+010865Y+020900
X+010865Y+021900
X+011865Y+021900
X+011865Y+022900
X+010865Y+022900
X+014226Y+027429
X+014226Y+033580
X+013911Y+045245
X+012911Y+045245
X+011911Y+045245
X+010911Y+045245
X+009911Y+045245
X+008911Y+045245
X+014226Y+015129
X+014226Y+008979
X+013930Y+005901
T06
X+004798Y+039378
X+005798Y+039378
X+005798Y+038378
X+004798Y+038378
X+004798Y+037378
X+005798Y+037378
T07
X+015226Y+021279
X+018476Y+021279
X+018476Y+027429
X+015226Y+027429
X+015226Y+033580
X+018476Y+033580
X+018476Y+015129
X+015226Y+015129
X+015226Y+008979
X+018476Y+008979
X+012930Y+005901
X+009680Y+005901
T08
X+009694Y+030504
X+008548Y+027429
X+004808Y+027429
X+004808Y+021279
X+008548Y+021279
X+008548Y+015129
X+009694Y+012054
X+008548Y+008979
X+004808Y+008979
X+004808Y+015129
X+013434Y+012054
X+013434Y+030504
T09
X+008679Y+033580
X+004821Y+033580
T00
M30
