G04 DipTrace 3.0.0.2*
G04 TopMask.gbr*
%MOIN*%
G04 #@! TF.FileFunction,Soldermask,Top*
G04 #@! TF.Part,Single*
%AMOUTLINE0*
4,1,4,
0.051181,0.027559,
-0.051181,0.027559,
-0.051181,-0.027559,
0.051181,-0.027559,
0.051181,0.027559,
0*%
%AMOUTLINE1*
4,1,4,
0.043307,0.027559,
-0.043307,0.027559,
-0.043307,-0.027559,
0.043307,-0.027559,
0.043307,0.027559,
0*%
%AMOUTLINE2*
4,1,4,
-0.059055,-0.027559,
0.059055,-0.027559,
0.059055,0.027559,
-0.059055,0.027559,
-0.059055,-0.027559,
0*%
%AMOUTLINE3*
4,1,4,
0.059055,0.027559,
-0.059055,0.027559,
-0.059055,-0.027559,
0.059055,-0.027559,
0.059055,0.027559,
0*%
%AMOUTLINE4*
4,1,4,
0.019685,-0.01378,
0.019685,0.01378,
-0.019685,0.01378,
-0.019685,-0.01378,
0.019685,-0.01378,
0*%
%AMOUTLINE5*
4,1,4,
0.008071,0.020079,
-0.008071,0.020079,
-0.008071,-0.020079,
0.008071,-0.020079,
0.008071,0.020079,
0*%
%AMOUTLINE6*
4,1,4,
0.019685,0.031496,
-0.019685,0.031496,
-0.019685,-0.031496,
0.019685,-0.031496,
0.019685,0.031496,
0*%
%AMOUTLINE7*
4,1,4,
0.106299,0.122047,
-0.106299,0.122047,
-0.106299,-0.122047,
0.106299,-0.122047,
0.106299,0.122047,
0*%
%AMOUTLINE8*
4,1,4,
0.01378,0.019685,
-0.01378,0.019685,
-0.01378,-0.019685,
0.01378,-0.019685,
0.01378,0.019685,
0*%
%AMOUTLINE9*5,1,8,0,0,0.074,67.500816*%
%AMOUTLINE10*5,1,8,0,0,0.044,-202.498927*%
%AMOUTLINE11*
4,1,4,
-0.038,0.105,
-0.038,-0.105,
0.038,-0.105,
0.038,0.105,
-0.038,0.105,
0*%
%AMOUTLINE12*
4,1,4,
-0.019685,-0.027559,
0.019685,-0.027559,
0.019685,0.027559,
-0.019685,0.027559,
-0.019685,-0.027559,
0*%
%AMOUTLINE13*
4,1,4,
0.035492,-0.031496,
0.035492,0.031496,
-0.035492,0.031496,
-0.035492,-0.031496,
0.035492,-0.031496,
0*%
%AMOUTLINE14*5,1,8,0,0,0.150237,-157.499867*%
%AMOUTLINE15*
4,1,4,
0.023622,-0.062992,
0.023622,0.062992,
-0.023622,0.062992,
-0.023622,-0.062992,
0.023622,-0.062992,
0*%
%AMOUTLINE16*
4,1,4,
0.062992,0.023622,
-0.062992,0.023622,
-0.062992,-0.023622,
0.062992,-0.023622,
0.062992,0.023622,
0*%
%AMOUTLINE17*
4,1,4,
0.019685,-0.005,
0.019685,0.005,
-0.019685,0.005,
-0.019685,-0.005,
0.019685,-0.005,
0*%
%AMOUTLINE18*
4,1,4,
0.005,-0.019685,
0.005,0.019685,
-0.005,0.019685,
-0.005,-0.019685,
0.005,-0.019685,
0*%
%ADD35R,0.066929X0.066929*%
%ADD36C,0.066929*%
%ADD37C,0.074*%
%ADD42R,0.05937X0.05937*%
%ADD64R,0.043307X0.023622*%
%ADD66R,0.023622X0.086614*%
%ADD68R,0.226378X0.25*%
%ADD70R,0.047244X0.116142*%
%ADD72R,0.074803X0.027559*%
%ADD74R,0.027559X0.074803*%
%ADD78O,0.107874X0.142874*%
%ADD80R,0.05315X0.114173*%
%ADD82R,0.114173X0.05315*%
%ADD86C,0.074803*%
%ADD87R,0.074803X0.074803*%
%ADD90C,0.072874*%
%ADD92O,0.082874X0.092874*%
%ADD94R,0.023622X0.07874*%
%ADD96R,0.047244X0.094488*%
%ADD98R,0.051181X0.047244*%
%ADD100R,0.047244X0.051181*%
%ADD108OUTLINE0*%
%ADD109OUTLINE1*%
%ADD110OUTLINE2*%
%ADD111OUTLINE3*%
%ADD112OUTLINE4*%
%ADD113OUTLINE5*%
%ADD114OUTLINE6*%
%ADD115OUTLINE7*%
%ADD116OUTLINE8*%
%ADD117OUTLINE9*%
%ADD118OUTLINE10*%
%ADD119OUTLINE11*%
%ADD120OUTLINE12*%
%ADD121OUTLINE13*%
%ADD122OUTLINE14*%
%ADD123OUTLINE15*%
%ADD124OUTLINE16*%
%ADD125OUTLINE17*%
%ADD126OUTLINE18*%
%FSLAX26Y26*%
G04*
G70*
G90*
G75*
G01*
G04 TopMask*
%LPD*%
D100*
X1302444Y2547631D3*
Y2480702D3*
X476221Y2357794D3*
Y2290865D3*
D98*
X1788160Y3944236D3*
X1855089D3*
D100*
X1357337Y2879340D3*
Y2812411D3*
X1403587Y3268676D3*
Y3201747D3*
X1819704Y2936217D3*
Y2869288D3*
X1844946Y4331820D3*
Y4264891D3*
D98*
X1624624Y2307878D3*
X1691553D3*
D100*
X1255555Y3247750D3*
Y3180820D3*
X1282491Y2865087D3*
Y2932016D3*
X1858347Y3253280D3*
Y3186351D3*
D98*
X1544635Y2039667D3*
X1611565D3*
X1816486Y1710734D3*
X1749557D3*
X1368567Y1634502D3*
X1435496D3*
D108*
X1203700Y2597273D3*
X1042282D3*
D98*
X1764851Y2025763D3*
X1831780D3*
X1461809Y2012229D3*
X1394879D3*
D100*
X1851704Y2536293D3*
Y2603222D3*
D108*
X739612Y1668990D3*
X578194D3*
D100*
X1673223Y580894D3*
Y647823D3*
D98*
X681437Y529328D3*
X614508D3*
D100*
X497832Y685117D3*
Y618188D3*
D98*
X1647659Y1120721D3*
X1580730D3*
D109*
X931894Y725377D3*
X805910D3*
D110*
X1056236Y1087654D3*
X1245213D3*
D98*
X675471Y1319698D3*
X608542D3*
D100*
X511743Y1105167D3*
Y1038238D3*
X727047Y752856D3*
Y685927D3*
D98*
X615179Y1073166D3*
X682108D3*
D111*
X1259567Y730999D3*
X1070591D3*
D98*
X1271660Y2686664D3*
X1338589D3*
D100*
X472676Y3016793D3*
Y2949864D3*
D108*
X1048734Y3947232D3*
X887316D3*
D98*
X689881Y4507173D3*
X756810D3*
X676231Y3963218D3*
X743160D3*
D96*
X1135502Y1526537D3*
X1235502D3*
Y1751340D3*
X1135502D3*
D94*
X1722709Y4120890D3*
X1697118D3*
X1671528D3*
X1645937D3*
X1620347D3*
X1594756D3*
X1569166D3*
X1543575D3*
Y3892536D3*
X1569166Y3892544D3*
X1594756D3*
X1620347D3*
X1645937D3*
X1671528D3*
X1697118D3*
X1722709D3*
X1543567Y4273637D3*
X1569158D3*
X1594748D3*
X1620339D3*
X1645929D3*
X1671520D3*
X1697110D3*
X1722701D3*
Y4501991D3*
X1697110Y4501983D3*
X1671520D3*
X1645929D3*
X1620339D3*
X1594748D3*
X1569158D3*
X1543567D3*
D112*
X1774009Y2385251D3*
Y2310448D3*
X1860624Y2347849D3*
D94*
X1390436Y2366967D3*
X1416026D3*
X1441617D3*
X1467208D3*
X1492798D3*
X1518389D3*
X1543979Y2366975D3*
Y2595314D3*
X1518389D3*
X1492798D3*
X1467208D3*
X1441617D3*
X1416026D3*
X1390436D3*
D113*
X1678061Y2481271D3*
X1703651D3*
X1729242D3*
X1754832D3*
Y2670247D3*
X1729242D3*
X1703651D3*
X1678061D3*
D114*
X576704Y1967965D3*
X756231D3*
D115*
X666467Y2255366D3*
D94*
X1681622Y1934743D3*
X1656032D3*
X1630441D3*
X1604851D3*
X1579260D3*
X1553670D3*
X1528079Y1934735D3*
Y1706397D3*
X1553670D3*
X1579260D3*
X1604851D3*
X1630441D3*
X1656032D3*
X1681622D3*
D116*
X625271Y1418778D3*
X700074D3*
X662672Y1505393D3*
D94*
X1759771Y1003274D3*
X1734180D3*
X1708589D3*
X1682999D3*
X1657408D3*
X1631818D3*
X1606227Y1003267D3*
Y774928D3*
X1631818D3*
X1657408D3*
X1682999D3*
X1708589D3*
X1734180D3*
X1759771D3*
X665387Y951278D3*
X639797D3*
X614206D3*
X588616D3*
Y722932D3*
X614206D3*
X639797D3*
X665387D3*
D92*
X1522587Y2127902D3*
X1847587D3*
D90*
X1422587D3*
D92*
X1522587Y2742902D3*
X1847587D3*
D90*
X1422587D3*
D92*
X1522587Y1512902D3*
X1847587D3*
D90*
X1422587D3*
D92*
X1293002Y590074D3*
X968002D3*
D90*
X1393002D3*
D35*
X1514601Y3769301D3*
D36*
X1414601D3*
X1314601D3*
X1214601D3*
X1114601D3*
X1014601D3*
X914601D3*
X814601D3*
D87*
X479810Y3937828D3*
D86*
X579810D3*
X479810Y3837828D3*
X579810D3*
X479810Y3737828D3*
X579810D3*
D92*
X1522587Y3357953D3*
X1847587D3*
D90*
X1422587D3*
D92*
X1522587Y897902D3*
X1847587D3*
D90*
X1422587D3*
D117*
X1186541Y1890007D3*
X1086541D3*
X1186541Y1990007D3*
X1086541D3*
X1186541Y2090007D3*
X1086541D3*
X1186541Y2190007D3*
X1086541D3*
X1186541Y2290007D3*
X1086541D3*
D118*
X1861580Y3683239D3*
Y3633239D3*
X1811580Y3683239D3*
Y3633239D3*
X1761580Y3683239D3*
Y3633239D3*
X1711580Y3683239D3*
Y3633239D3*
X1661580Y3683239D3*
Y3633239D3*
D37*
X891142Y4524517D3*
X991142D3*
X1091142D3*
X1191142D3*
X1291142D3*
X1391142D3*
D82*
X1230945Y1290038D3*
Y1408149D3*
X1084183Y1290572D3*
Y1408683D3*
X914273Y2241361D3*
Y2359471D3*
D80*
X1032788Y1662314D3*
X914677D3*
D119*
X1119534Y2913364D3*
Y3293364D3*
D120*
X1738353Y3533246D3*
X1700952Y3446631D3*
X1663550Y3533246D3*
D98*
X744979Y3845918D3*
X678050D3*
D121*
X905839Y2563456D3*
Y2451487D3*
D90*
X1254400Y2755423D3*
X1156400Y2755147D3*
X1058400Y2755423D3*
D78*
X969400Y3050423D3*
X1343400D3*
D90*
X765837Y2447902D3*
X667837Y2447626D3*
X569837Y2447902D3*
D78*
X480837Y2742902D3*
X854837D3*
D90*
X765837Y1832902D3*
X667837Y1832626D3*
X569837Y1832902D3*
D78*
X480837Y2127902D3*
X854837D3*
D100*
X897827Y3538315D3*
Y3605244D3*
D98*
X1629740Y2394272D3*
X1696670D3*
D100*
X1623229Y2125131D3*
Y2192061D3*
D98*
X1818049Y1622994D3*
X1751120D3*
X1370070Y1740545D3*
X1436999D3*
X1494900Y2846782D3*
X1427971D3*
D100*
X1713616Y1480324D3*
Y1547253D3*
D98*
X1876927Y3523508D3*
X1809998D3*
D100*
X1861135Y761715D3*
Y694786D3*
D98*
X1516406Y750369D3*
X1449477D3*
D100*
X1341730Y1486544D3*
Y1553473D3*
X1381532Y3539450D3*
Y3472521D3*
D98*
X1763685Y1957336D3*
X1830614D3*
X1461746Y1943738D3*
X1394816D3*
D90*
X765837Y1217902D3*
X667837Y1217626D3*
X569837Y1217902D3*
D78*
X480837Y1512902D3*
X854837D3*
D90*
X1254400Y910402D3*
X1156400Y910126D3*
X1058400Y910402D3*
D78*
X969400Y1205402D3*
X1343400D3*
D90*
X765837Y602902D3*
X667837Y602626D3*
X569837Y602902D3*
D78*
X480837Y897902D3*
X854837D3*
D100*
X1761366Y2165481D3*
Y2098551D3*
D98*
X930175Y1982025D3*
X863246D3*
D100*
X1366923Y1001294D3*
Y1068223D3*
D98*
X1781093Y1178482D3*
X1848023D3*
X1779234Y586849D3*
X1846163D3*
X1613225Y669790D3*
X1546295D3*
X1008065Y464232D3*
X1074994D3*
X618933Y463412D3*
X685862D3*
X1399957Y672167D3*
X1466886D3*
X1384545Y818151D3*
X1317616D3*
D121*
X899852Y1896769D3*
Y1784801D3*
D100*
X770961Y888711D3*
Y955641D3*
D98*
X860415Y1322202D3*
X793486D3*
X1737834Y1112330D3*
X1804763D3*
X1540848Y1042046D3*
X1473919D3*
D100*
X1811769Y1869389D3*
Y1802460D3*
X963862Y817946D3*
Y884876D3*
X886070Y521540D3*
Y588469D3*
D42*
X773427Y3062677D3*
X576576D3*
X675002D3*
X773427Y3633544D3*
X576576D3*
D122*
X867915Y3357953D3*
X482088D3*
D123*
X594230Y3490361D3*
Y3222645D3*
X751710Y3490361D3*
Y3222645D3*
D124*
X1005612Y3466965D3*
X1273328D3*
X1005612Y3624445D3*
X1273328D3*
D74*
X790735Y4388264D3*
X759239D3*
X727743D3*
X696247D3*
X664751D3*
X633255D3*
X601759D3*
X570263D3*
D72*
X515145Y4333146D3*
Y4301650D3*
Y4270154D3*
Y4238658D3*
Y4207162D3*
Y4175666D3*
Y4144170D3*
Y4112673D3*
D74*
X570263Y4057555D3*
X601759D3*
X633255D3*
X664751D3*
X696247D3*
X727743D3*
X759239D3*
X790735D3*
D72*
X845853Y4112673D3*
Y4144170D3*
Y4175666D3*
Y4207162D3*
Y4238658D3*
Y4270154D3*
Y4301650D3*
Y4333146D3*
D94*
X1392744Y4364774D3*
X1367154D3*
X1341563D3*
X1315973D3*
X1290382D3*
X1264792D3*
X1239201D3*
X1213610D3*
X1188020D3*
X1162429D3*
X1136839D3*
X1111248D3*
Y4136420D3*
X1136839Y4136428D3*
X1162429D3*
X1188020D3*
X1213610D3*
X1239201D3*
X1264792D3*
X1290382D3*
X1315973D3*
X1341563D3*
X1367154D3*
X1392744D3*
D70*
X578414Y2600239D3*
X757941D3*
D68*
X668177Y2864019D3*
D66*
X503599Y4491298D3*
X551105D3*
X598612D3*
D64*
X1010612Y4346907D3*
Y4372498D3*
Y4398088D3*
X923998D3*
Y4372498D3*
Y4346907D3*
D125*
X1463550Y3201118D3*
Y3181433D3*
Y3161748D3*
Y3142063D3*
Y3122378D3*
Y3102693D3*
Y3083008D3*
Y3063323D3*
Y3043638D3*
Y3023953D3*
Y3004268D3*
Y2984583D3*
D126*
X1522605Y2925528D3*
X1542290D3*
X1561975D3*
X1581660D3*
X1601345D3*
X1621030D3*
X1640715D3*
X1660400D3*
X1680086D3*
X1699771D3*
X1719456D3*
X1739141D3*
D125*
X1798196Y2984583D3*
Y3004268D3*
Y3023953D3*
Y3043638D3*
Y3063323D3*
Y3083008D3*
Y3102693D3*
Y3122378D3*
Y3142063D3*
Y3161748D3*
Y3181433D3*
Y3201118D3*
D126*
X1739141Y3260173D3*
X1719456D3*
X1699771D3*
X1680086D3*
X1660400D3*
X1640715D3*
X1621030D3*
X1601345D3*
X1581660D3*
X1561975D3*
X1542290D3*
X1522605D3*
M02*
