G04 DipTrace 3.0.0.2*
G04 TopSilk.gbr*
%MOIN*%
G04 #@! TF.FileFunction,Legend,Top*
G04 #@! TF.Part,Single*
%ADD10C,0.009843*%
%ADD12C,0.003*%
%ADD15C,0.01*%
%ADD16C,0.008*%
%ADD21C,0.006*%
%ADD22O,0.070678X0.070197*%
%ADD25C,0.000013*%
%ADD26C,0.004*%
%ADD29C,0.002*%
%ADD40C,0.005*%
%ADD43O,0.016422X0.016542*%
%ADD46C,0.01541*%
%ADD50C,0.01543*%
%ADD102C,0.004632*%
%ADD103C,0.009264*%
%ADD105C,0.006176*%
%ADD106C,0.012351*%
%ADD107C,0.00772*%
%FSLAX26Y26*%
G04*
G70*
G90*
G75*
G01*
G04 TopSilk*
%LPD*%
X1026527Y2597273D2*
D25*
G02X1026527Y2597273I96464J0D01*
G01*
X1020618Y2634676D2*
D26*
Y2699635D1*
X1172212D1*
X1225364Y2646489D1*
Y2634676D1*
Y2559870D2*
Y2548057D1*
X1172212Y2494911D1*
X1020618D1*
Y2559870D1*
X1032436Y2630746D2*
G02X1213547Y2630746I90556J-33497D01*
G01*
X1032436Y2563801D2*
G03X1213547Y2563801I90556J33497D01*
G01*
X562439Y1668990D2*
D25*
G02X562439Y1668990I96464J0D01*
G01*
X556530Y1706393D2*
D26*
Y1771352D1*
X708124D1*
X761276Y1718205D1*
Y1706393D1*
Y1631587D2*
Y1619774D1*
X708124Y1566628D1*
X556530D1*
Y1631587D1*
X568348Y1702462D2*
G02X749459Y1702462I90556J-33497D01*
G01*
X568348Y1635517D2*
G03X749459Y1635517I90556J33497D01*
G01*
X792132Y725377D2*
D25*
G02X792132Y725377I76769J0D01*
G01*
X799999Y758845D2*
D26*
G02X937805Y758845I68903J-33484D01*
G01*
X799999Y691909D2*
G03X937805Y691909I68903J33483D01*
G01*
X786222Y758845D2*
Y808054D1*
X908275D1*
X951581Y764748D1*
Y686006D2*
X908275Y642700D1*
X786222D1*
Y691909D1*
X1028688Y1087654D2*
D25*
G02X1028688Y1087654I122036J0D01*
G01*
X1278688Y1050240D2*
D26*
Y959701D1*
X1089707D1*
X1022762Y1026620D1*
Y1050240D1*
Y1125067D2*
Y1148687D1*
X1089707Y1215607D1*
X1278688D1*
Y1125067D1*
X1266865Y1050240D2*
G02X1034584Y1050240I-116140J37416D01*
G01*
X1266865Y1125067D2*
G03X1034584Y1125067I-116140J-37416D01*
G01*
X1043043Y730999D2*
D25*
G02X1043043Y730999I122036J0D01*
G01*
X1037116Y768412D2*
D26*
Y858952D1*
X1226097D1*
X1293042Y792032D1*
Y768412D1*
Y693586D2*
Y669965D1*
X1226097Y603046D1*
X1037116D1*
Y693586D1*
X1048939Y768412D2*
G02X1281219Y768412I116140J-37416D01*
G01*
X1048939Y693586D2*
G03X1281219Y693586I116140J37416D01*
G01*
X871561Y3947232D2*
D25*
G02X871561Y3947232I96464J0D01*
G01*
X865652Y3984636D2*
D26*
Y4049595D1*
X1017246D1*
X1070398Y3996448D1*
Y3984636D1*
Y3909829D2*
Y3898017D1*
X1017246Y3844870D1*
X865652D1*
Y3909829D1*
X877470Y3980705D2*
G02X1058581Y3980705I90556J-33497D01*
G01*
X877470Y3913760D2*
G03X1058581Y3913760I90556J33497D01*
G01*
X1092978Y1583818D2*
D10*
X1278025D1*
Y1692097D1*
Y1694059D2*
X1092978D1*
Y1654696D1*
Y1583818D2*
Y1623181D1*
G03X1092978Y1654696I1844J15758D01*
G01*
X1739442Y4069699D2*
X1526842D1*
X1739442Y3943727D2*
X1526842D1*
Y4069699D2*
Y3943727D1*
X1739442Y4069699D2*
Y4026402D1*
Y3987024D2*
Y3943727D1*
Y4026402D2*
G03X1739442Y3987024I23J-19689D01*
G01*
X1526834Y4324828D2*
X1739434D1*
X1526834Y4450800D2*
X1739434D1*
Y4324828D2*
Y4450800D1*
X1526834Y4324828D2*
Y4368125D1*
Y4407503D2*
Y4450800D1*
Y4368125D2*
G03X1526834Y4407503I-23J19689D01*
G01*
X1368782Y2418156D2*
X1565633D1*
X1368782Y2544125D2*
X1565633D1*
Y2418156D2*
Y2544125D1*
X1368782Y2418156D2*
Y2461452D1*
Y2500829D2*
Y2544125D1*
Y2461452D2*
G03X1368782Y2500829I-3J19688D01*
G01*
X1671293Y2536760D2*
D25*
G02X1671293Y2536760I5652J0D01*
G01*
X1775502Y2516711D2*
D16*
Y2634807D1*
X1657391D2*
Y2516711D1*
G36*
X683455Y2067958D2*
X649496D1*
Y2037930D1*
X683455D1*
Y2067958D1*
G37*
X795473Y2307921D2*
D16*
Y2071927D1*
X537452D1*
X537477Y2307921D1*
X1703276Y1883554D2*
D10*
X1506425D1*
X1703276Y1757586D2*
X1506425D1*
Y1883554D2*
Y1757586D1*
X1703276Y1883554D2*
Y1840258D1*
Y1800882D2*
Y1757586D1*
Y1840258D2*
G03X1703276Y1800882I3J-19688D01*
G01*
X1781425Y952086D2*
X1584573D1*
X1781425Y826117D2*
X1584573D1*
Y952086D2*
Y826117D1*
X1781425Y952086D2*
Y908789D1*
Y869413D2*
Y826117D1*
Y908789D2*
G03X1781425Y869413I3J-19688D01*
G01*
X686057Y900089D2*
X567946D1*
X686057Y774121D2*
X567946D1*
Y900089D2*
Y774121D1*
X686057Y900089D2*
Y856793D1*
Y817417D2*
Y774121D1*
Y856793D2*
G03X686057Y817417I-13J-19688D01*
G01*
X629810Y3987828D2*
X429810D1*
Y3687828D1*
X629810D1*
Y3987828D1*
G36*
X1176536Y2080007D2*
X1196516D1*
Y2100007D1*
X1176536D1*
Y2080007D1*
G37*
X1211546Y1840007D2*
D21*
X1236543Y1865007D1*
Y1915007D2*
X1211546Y1940007D1*
X1236543Y1965007D1*
Y2015007D2*
X1211546Y2040007D1*
X1236543Y2065007D1*
Y2115007D2*
X1211546Y2140007D1*
X1236543Y2165007D1*
Y2215007D2*
X1211546Y2240007D1*
Y1840007D2*
X1061538D1*
X1036541Y1865007D1*
Y1915007D1*
X1061538Y1940007D1*
X1036541Y1965007D1*
Y2015007D1*
X1061538Y2040007D1*
X1036541Y2065007D1*
Y2115007D1*
X1061538Y2140007D1*
X1036541Y2165007D1*
Y2215007D1*
X1061538Y2240007D1*
Y1940007D2*
X1211546D1*
X1061538Y2040007D2*
X1211546D1*
X1061538Y2140007D2*
X1211546D1*
X1061538Y2240007D2*
X1211546D1*
X1236543Y2165007D2*
Y2215007D1*
Y2065007D2*
Y2115007D1*
Y1965007D2*
Y2015007D1*
Y1865007D2*
Y1915007D1*
X1211546Y2240007D2*
X1236543Y2265007D1*
Y2315007D2*
X1211546Y2340007D1*
X1061538Y2240007D2*
X1036541Y2265007D1*
Y2315007D1*
X1061538Y2340007D1*
X1211546D1*
X1236543Y2265007D2*
Y2315007D1*
X1261541Y1865007D2*
D16*
Y1915007D1*
X1886580Y3695744D2*
D21*
X1874080Y3708242D1*
X1849080D2*
X1836580Y3695744D1*
X1824080Y3708242D1*
X1799080D2*
X1786580Y3695744D1*
X1774080Y3708242D1*
X1749080D2*
X1736580Y3695744D1*
X1724080Y3708242D1*
X1699080D2*
X1686580Y3695744D1*
X1886580D2*
Y3620740D1*
X1874080Y3608241D1*
X1849080D1*
X1836580Y3620740D1*
X1824080Y3608241D1*
X1799080D1*
X1786580Y3620740D1*
X1774080Y3608241D1*
X1749080D1*
X1736580Y3620740D1*
X1724080Y3608241D1*
X1699080D1*
X1686580Y3620740D1*
X1836580D2*
Y3695744D1*
X1786580Y3620740D2*
Y3695744D1*
X1736580Y3620740D2*
Y3695744D1*
X1686580Y3620740D2*
Y3695744D1*
X1724080Y3708242D2*
X1699080D1*
X1774080D2*
X1749080D1*
X1824080D2*
X1799080D1*
X1874080D2*
X1849080D1*
X1686580Y3695744D2*
X1674080Y3708242D1*
X1649080D2*
X1636580Y3695744D1*
X1686580Y3620740D2*
X1674080Y3608241D1*
X1649080D1*
X1636580Y3620740D1*
Y3695744D1*
X1674080Y3708242D2*
X1649080D1*
X1874080Y3720741D2*
D16*
X1849080D1*
X1341122Y4549517D2*
X1366142Y4574517D1*
X1416122D1*
X1441142Y4549517D1*
Y4499517D2*
X1416122Y4474517D1*
X1366142D1*
X1341122Y4499517D1*
X1166162Y4574517D2*
X1216142D1*
X1241162Y4549517D1*
Y4499517D2*
X1216142Y4474517D1*
X1241162Y4549517D2*
X1266122Y4574517D1*
X1316162D1*
X1341122Y4549517D1*
Y4499517D2*
X1316162Y4474517D1*
X1266122D1*
X1241162Y4499517D1*
X1041122Y4549517D2*
X1066142Y4574517D1*
X1116122D1*
X1141142Y4549517D1*
Y4499517D2*
X1116122Y4474517D1*
X1066142D1*
X1041122Y4499517D1*
X1166162Y4574517D2*
X1141142Y4549517D1*
Y4499517D2*
X1166162Y4474517D1*
X1216142D2*
X1166162D1*
X866162Y4574517D2*
X916142D1*
X941162Y4549517D1*
Y4499517D2*
X916142Y4474517D1*
X941162Y4549517D2*
X966122Y4574517D1*
X1016162D1*
X1041122Y4549517D1*
Y4499517D2*
X1016162Y4474517D1*
X966122D1*
X941162Y4499517D1*
X841142Y4549517D2*
Y4499517D1*
X866162Y4574517D2*
X841142Y4549517D1*
Y4499517D2*
X866162Y4474517D1*
X916142D2*
X866162D1*
X1441142Y4549517D2*
Y4499517D1*
X1280162Y1333310D2*
D10*
Y1364795D1*
X1181729Y1333310D2*
Y1364795D1*
X1133399Y1333844D2*
Y1365329D1*
X1034966Y1333844D2*
Y1365329D1*
X963490Y2284633D2*
Y2316118D1*
X865057Y2284633D2*
Y2316118D1*
X989516Y1711530D2*
X958031D1*
X989516Y1613097D2*
X958031D1*
X1074542Y2902233D2*
D29*
G02X1039525Y2968372I44928J66126D01*
G01*
X1074542Y2878338D2*
D21*
X1034528D1*
X1039525Y3238356D2*
D29*
G02X1074542Y3304495I79908J32D01*
G01*
Y3328390D2*
D21*
X1034528D1*
X1169542Y3238356D2*
D29*
Y2968372D1*
X1199543Y3238356D2*
Y2968372D1*
X1069526D2*
Y3238356D1*
X1214534Y3318360D2*
D21*
Y2888368D1*
Y3318360D2*
G03X1204540Y3328390I-9998J32D01*
G01*
X1164526D1*
X1169542Y3238356D2*
D29*
G03X1164526Y3260186I-50328J-73D01*
G01*
X1069526Y3238356D2*
G02X1074542Y3260186I50027J-4D01*
G01*
X1199543Y3238356D2*
G03X1164526Y3304495I-79980J-6D01*
G01*
Y2902233D2*
G03X1199543Y2968372I-44981J66154D01*
G01*
X1164526Y2946542D2*
G03X1169542Y2968372I-44703J21763D01*
G01*
X1074542Y2946542D2*
G02X1069526Y2968372I45523J21951D01*
G01*
X1204540Y2878338D2*
D21*
X1164526D1*
X1204540D2*
G03X1214534Y2888368I-70J10064D01*
G01*
X1039525Y2968372D2*
D29*
Y3238356D1*
X1024534Y3318360D2*
D21*
Y2888368D1*
Y3318360D2*
G02X1034528Y3328390I10031J-1D01*
G01*
Y2878338D2*
G02X1024534Y2888368I37J10031D01*
G01*
X1094530Y3093393D2*
X1144538D1*
Y3113335D1*
X1094530D1*
Y3093393D1*
Y3078348D2*
X1119534D1*
X1144538D1*
X1119534D2*
D29*
Y3063362D1*
X1094530Y3128380D2*
D21*
X1119534D1*
X1144538D1*
X1119534D2*
D29*
Y3143366D1*
X613773Y3356503D2*
D25*
G02X613773Y3356503I59197J0D01*
G01*
X633592D2*
G02X633592Y3356503I39378J0D01*
G01*
X791080Y3486424D2*
D40*
Y3226582D1*
X554860D1*
Y3486424D1*
X791080D1*
X1080297Y3545705D2*
D25*
G02X1080297Y3545705I59173J0D01*
G01*
X1100100D2*
G02X1100100Y3545705I39370J0D01*
G01*
X1009549Y3663815D2*
D40*
X1269391D1*
Y3427595D1*
X1009549D1*
Y3663815D1*
X792712Y4337071D2*
D10*
X564349D1*
Y4108748D1*
X792712D1*
Y4337071D1*
D43*
X823827Y4388725D3*
G36*
X792712Y4337071D2*
X761219D1*
X792712Y4305579D1*
Y4337071D1*
G37*
X1405556Y4313583D2*
D10*
X1098437D1*
X1405556Y4187611D2*
X1098437D1*
Y4313583D2*
Y4187611D1*
X1405556Y4313583D2*
Y4270286D1*
Y4230909D2*
Y4187611D1*
Y4270286D2*
G03X1405556Y4230909I2J-19689D01*
G01*
X538251Y2671126D2*
X798093D1*
X538251Y2946715D2*
Y2671126D1*
Y2946715D2*
X546116D1*
X798093D2*
Y2671126D1*
Y2946715D2*
X790228D1*
D46*
X539184Y2556180D3*
D50*
X1021414Y4323934D3*
X979142Y4333133D2*
D10*
Y4411862D1*
X955482D1*
Y4333133D1*
X979142D1*
X1528505Y3171600D2*
D25*
G02X1528505Y3171600I23619J0D01*
G01*
X1752914Y3225738D2*
D15*
X1763761Y3214892D1*
Y2970809D1*
X1752914Y2959963D1*
X1508832D1*
X1497985Y2970809D1*
Y3214892D1*
X1508832Y3225738D1*
X1752914D1*
X1372433Y1979439D2*
D21*
X1477919D1*
G36*
X1434604Y502428D2*
X1506053D1*
Y436475D1*
X1434604D1*
Y502428D1*
G37*
G36*
X1595538Y437870D2*
X1521961D1*
X1557118Y503837D1*
X1595538Y437870D1*
G37*
D22*
X1381875Y467840D3*
X1615773Y500782D2*
D16*
X1678369D1*
Y441377D1*
X1615773D1*
Y500782D1*
X1745495Y1991660D2*
D21*
X1854840D1*
X1628211Y493068D2*
D12*
X1635711D1*
X1624814Y491568D2*
X1640096D1*
X1622012Y490068D2*
X1643958D1*
X1677711D2*
X1679211D1*
X1619844Y488568D2*
X1647435D1*
X1675876D2*
X1679211D1*
X1618201Y487068D2*
X1651028D1*
X1673353D2*
X1679206D1*
X1616974Y485568D2*
X1655729D1*
X1669234D2*
X1679153D1*
X1616052Y484068D2*
X1662349D1*
X1662900D2*
X1678956D1*
X1615401Y482568D2*
X1678538D1*
X1615026Y481068D2*
X1625274D1*
X1637211D2*
X1677898D1*
X1614843Y479568D2*
X1622525D1*
X1640217D2*
X1676974D1*
X1614762Y478068D2*
X1620129D1*
X1643276D2*
X1675639D1*
X1614729Y476568D2*
X1618088D1*
X1646525D2*
X1673846D1*
X1614711Y475068D2*
X1616211D1*
X1650129D2*
X1671574D1*
X1654088Y473568D2*
X1668797D1*
X1658211Y472068D2*
X1665711D1*
X1630024Y473858D2*
X1637524D1*
X1626626Y472358D2*
X1641909D1*
X1623824Y470858D2*
X1645770D1*
X1679524D2*
X1681024D1*
X1621656Y469358D2*
X1649247D1*
X1677688D2*
X1681024D1*
X1620013Y467858D2*
X1652841D1*
X1675165D2*
X1681018D1*
X1618786Y466358D2*
X1657542D1*
X1671047D2*
X1680965D1*
X1617864Y464858D2*
X1664161D1*
X1664712D2*
X1680768D1*
X1617214Y463358D2*
X1680350D1*
X1616839Y461858D2*
X1627087D1*
X1639024D2*
X1679710D1*
X1616655Y460358D2*
X1624337D1*
X1642030D2*
X1678787D1*
X1616575Y458858D2*
X1621941D1*
X1645088D2*
X1677451D1*
X1616542Y457358D2*
X1619901D1*
X1648338D2*
X1675659D1*
X1616524Y455858D2*
X1618024D1*
X1651941D2*
X1673386D1*
X1655901Y454358D2*
X1670609D1*
X1660024Y452858D2*
X1667524D1*
X1628211Y493068D2*
X1624814Y491568D1*
X1622012Y490068D1*
X1619844Y488568D1*
X1618201Y487068D1*
X1616974Y485568D1*
X1616052Y484068D1*
X1615401Y482568D1*
X1615026Y481068D1*
X1614843Y479568D1*
X1614762Y478068D1*
X1614729Y476568D1*
X1614711Y475068D1*
X1635711Y493068D2*
X1640096Y491568D1*
X1643958Y490068D1*
X1647435Y488568D1*
X1651028Y487068D1*
X1655729Y485568D1*
X1662349Y484068D1*
X1670211Y482568D1*
X1677711Y490068D2*
X1675876Y488568D1*
X1673353Y487068D1*
X1669234Y485568D1*
X1662900Y484068D1*
X1655211Y482568D1*
X1679211Y490068D2*
Y488568D1*
X1679206Y487068D1*
X1679153Y485568D1*
X1678956Y484068D1*
X1678538Y482568D1*
X1677898Y481068D1*
X1676974Y479568D1*
X1675639Y478068D1*
X1673846Y476568D1*
X1671574Y475068D1*
X1668797Y473568D1*
X1665711Y472068D1*
X1628211Y482568D2*
X1625274Y481068D1*
X1622525Y479568D1*
X1620129Y478068D1*
X1618088Y476568D1*
X1616211Y475068D1*
X1634211Y482568D2*
X1637211Y481068D1*
X1640217Y479568D1*
X1643276Y478068D1*
X1646525Y476568D1*
X1650129Y475068D1*
X1654088Y473568D1*
X1658211Y472068D1*
X1630024Y473858D2*
X1626626Y472358D1*
X1623824Y470858D1*
X1621656Y469358D1*
X1620013Y467858D1*
X1618786Y466358D1*
X1617864Y464858D1*
X1617214Y463358D1*
X1616839Y461858D1*
X1616655Y460358D1*
X1616575Y458858D1*
X1616542Y457358D1*
X1616524Y455858D1*
X1637524Y473858D2*
X1641909Y472358D1*
X1645770Y470858D1*
X1649247Y469358D1*
X1652841Y467858D1*
X1657542Y466358D1*
X1664161Y464858D1*
X1672024Y463358D1*
X1679524Y470858D2*
X1677688Y469358D1*
X1675165Y467858D1*
X1671047Y466358D1*
X1664712Y464858D1*
X1657024Y463358D1*
X1681024Y470858D2*
Y469358D1*
X1681018Y467858D1*
X1680965Y466358D1*
X1680768Y464858D1*
X1680350Y463358D1*
X1679710Y461858D1*
X1678787Y460358D1*
X1677451Y458858D1*
X1675659Y457358D1*
X1673386Y455858D1*
X1670609Y454358D1*
X1667524Y452858D1*
X1630024Y463358D2*
X1627087Y461858D1*
X1624337Y460358D1*
X1621941Y458858D1*
X1619901Y457358D1*
X1618024Y455858D1*
X1636024Y463358D2*
X1639024Y461858D1*
X1642030Y460358D1*
X1645088Y458858D1*
X1648338Y457358D1*
X1651941Y455858D1*
X1655901Y454358D1*
X1660024Y452858D1*
X1297233Y2616911D2*
D102*
X1294381Y2615485D1*
X1291496Y2612600D1*
X1290070Y2609748D1*
Y2604011D1*
X1291496Y2601126D1*
X1294381Y2598274D1*
X1297233Y2596815D1*
X1301544Y2595389D1*
X1308740D1*
X1313018Y2596815D1*
X1315903Y2598274D1*
X1318755Y2601126D1*
X1320214Y2604011D1*
Y2609748D1*
X1318755Y2612600D1*
X1315903Y2615485D1*
X1313018Y2616911D1*
X1295841Y2626174D2*
X1294381Y2629059D1*
X1290104Y2633370D1*
X1320214D1*
X469585Y2413353D2*
X466733Y2411927D1*
X463848Y2409042D1*
X462422Y2406190D1*
Y2400453D1*
X463848Y2397568D1*
X466733Y2394716D1*
X469585Y2393257D1*
X473896Y2391831D1*
X481092D1*
X485370Y2393257D1*
X488255Y2394716D1*
X491107Y2397568D1*
X492566Y2400453D1*
Y2406190D1*
X491107Y2409042D1*
X488255Y2411927D1*
X485370Y2413353D1*
X469618Y2424076D2*
X468192D1*
X465307Y2425502D1*
X463881Y2426928D1*
X462455Y2429813D1*
Y2435550D1*
X463881Y2438402D1*
X465307Y2439828D1*
X468192Y2441287D1*
X471044D1*
X473929Y2439828D1*
X478207Y2436976D1*
X492566Y2422617D1*
Y2442713D1*
X1812654Y4020203D2*
X1811228Y4023055D1*
X1808343Y4025940D1*
X1805491Y4027366D1*
X1799754D1*
X1796869Y4025940D1*
X1794017Y4023055D1*
X1792558Y4020203D1*
X1791132Y4015892D1*
Y4008696D1*
X1792558Y4004418D1*
X1794017Y4001533D1*
X1796869Y3998681D1*
X1799754Y3997222D1*
X1805491D1*
X1808343Y3998681D1*
X1811228Y4001533D1*
X1812654Y4004418D1*
X1824802Y4027333D2*
X1840554D1*
X1831965Y4015859D1*
X1836276D1*
X1839128Y4014433D1*
X1840554Y4013007D1*
X1842013Y4008696D1*
Y4005844D1*
X1840554Y4001533D1*
X1837702Y3998648D1*
X1833391Y3997222D1*
X1829080D1*
X1824802Y3998648D1*
X1823376Y4000107D1*
X1821917Y4002959D1*
X1336740Y2746285D2*
X1333888Y2744859D1*
X1331003Y2741974D1*
X1329577Y2739122D1*
Y2733385D1*
X1331003Y2730500D1*
X1333888Y2727648D1*
X1336740Y2726189D1*
X1341051Y2724763D1*
X1348247D1*
X1352525Y2726189D1*
X1355410Y2727648D1*
X1358262Y2730500D1*
X1359721Y2733385D1*
Y2739122D1*
X1358262Y2741973D1*
X1355410Y2744859D1*
X1352525Y2746285D1*
X1359721Y2769907D2*
X1329610D1*
X1349673Y2755548D1*
Y2777070D1*
X1348939Y3234159D2*
X1346087Y3232733D1*
X1343202Y3229848D1*
X1341776Y3226996D1*
Y3221259D1*
X1343202Y3218374D1*
X1346087Y3215522D1*
X1348939Y3214063D1*
X1353250Y3212637D1*
X1360446D1*
X1364724Y3214063D1*
X1367609Y3215522D1*
X1370461Y3218374D1*
X1371920Y3221259D1*
Y3226996D1*
X1370461Y3229848D1*
X1367609Y3232733D1*
X1364724Y3234159D1*
X1341810Y3260633D2*
Y3246308D1*
X1354709Y3244882D1*
X1353284Y3246308D1*
X1351824Y3250619D1*
Y3254896D1*
X1353284Y3259207D1*
X1356135Y3262092D1*
X1360446Y3263518D1*
X1363298D1*
X1367609Y3262092D1*
X1370494Y3259207D1*
X1371920Y3254896D1*
Y3250618D1*
X1370494Y3246307D1*
X1369035Y3244882D1*
X1366183Y3243422D1*
X1862321Y2897285D2*
X1859469Y2895859D1*
X1856584Y2892974D1*
X1855158Y2890122D1*
Y2884385D1*
X1856584Y2881500D1*
X1859469Y2878648D1*
X1862321Y2877189D1*
X1866632Y2875763D1*
X1873828D1*
X1878106Y2877189D1*
X1880991Y2878648D1*
X1883843Y2881500D1*
X1885302Y2884385D1*
Y2890122D1*
X1883843Y2892974D1*
X1880991Y2895859D1*
X1878106Y2897285D1*
X1859469Y2923759D2*
X1856617Y2922333D1*
X1855191Y2918022D1*
Y2915170D1*
X1856617Y2910859D1*
X1860928Y2907974D1*
X1868091Y2906548D1*
X1875254D1*
X1880991Y2907974D1*
X1883876Y2910859D1*
X1885302Y2915170D1*
Y2916596D1*
X1883876Y2920874D1*
X1880991Y2923759D1*
X1876680Y2925185D1*
X1875254D1*
X1870943Y2923759D1*
X1868091Y2920874D1*
X1866665Y2916596D1*
Y2915170D1*
X1868091Y2910859D1*
X1870943Y2907974D1*
X1875254Y2906548D1*
X1830872Y4397353D2*
X1828020Y4395927D1*
X1825135Y4393042D1*
X1823709Y4390190D1*
Y4384453D1*
X1825135Y4381568D1*
X1828020Y4378716D1*
X1830872Y4377257D1*
X1835183Y4375831D1*
X1842379D1*
X1846657Y4377257D1*
X1849542Y4378716D1*
X1852394Y4381568D1*
X1853853Y4384453D1*
Y4390190D1*
X1852394Y4393042D1*
X1849542Y4395927D1*
X1846657Y4397353D1*
X1853853Y4412354D2*
X1823743Y4426713D1*
Y4406617D1*
X1652085Y2265838D2*
X1650659Y2268690D1*
X1647774Y2271575D1*
X1644922Y2273001D1*
X1639185D1*
X1636300Y2271575D1*
X1633448Y2268690D1*
X1631989Y2265838D1*
X1630563Y2261527D1*
Y2254331D1*
X1631989Y2250053D1*
X1633448Y2247168D1*
X1636300Y2244316D1*
X1639185Y2242857D1*
X1644922D1*
X1647774Y2244316D1*
X1650659Y2247168D1*
X1652085Y2250053D1*
X1668511Y2272968D2*
X1664233Y2271542D1*
X1662774Y2268690D1*
Y2265805D1*
X1664233Y2262953D1*
X1667085Y2261494D1*
X1672822Y2260068D1*
X1677133Y2258642D1*
X1679985Y2255757D1*
X1681411Y2252905D1*
Y2248594D1*
X1679985Y2245742D1*
X1678559Y2244283D1*
X1674248Y2242857D1*
X1668511D1*
X1664233Y2244283D1*
X1662774Y2245742D1*
X1661348Y2248594D1*
Y2252905D1*
X1662774Y2255757D1*
X1665659Y2258642D1*
X1669937Y2260068D1*
X1675674Y2261494D1*
X1678559Y2262953D1*
X1679985Y2265805D1*
Y2268690D1*
X1678559Y2271542D1*
X1674248Y2272968D1*
X1668511D1*
X1249206Y3318125D2*
X1246354Y3316699D1*
X1243469Y3313814D1*
X1242043Y3310962D1*
Y3305225D1*
X1243469Y3302340D1*
X1246354Y3299488D1*
X1249206Y3298029D1*
X1253517Y3296603D1*
X1260713D1*
X1264991Y3298029D1*
X1267876Y3299488D1*
X1270728Y3302340D1*
X1272187Y3305225D1*
Y3310962D1*
X1270728Y3313814D1*
X1267876Y3316699D1*
X1264991Y3318125D1*
X1252091Y3346059D2*
X1256402Y3344600D1*
X1259287Y3341748D1*
X1260713Y3337437D1*
Y3336011D1*
X1259287Y3331700D1*
X1256402Y3328848D1*
X1252091Y3327389D1*
X1250665D1*
X1246354Y3328848D1*
X1243502Y3331700D1*
X1242076Y3336011D1*
Y3337437D1*
X1243502Y3341748D1*
X1246354Y3344600D1*
X1252091Y3346059D1*
X1259287D1*
X1266450Y3344600D1*
X1270761Y3341748D1*
X1272187Y3337437D1*
Y3334585D1*
X1270761Y3330274D1*
X1267876Y3328848D1*
X1226035Y2886403D2*
X1223183Y2884977D1*
X1220298Y2882092D1*
X1218872Y2879240D1*
Y2873503D1*
X1220298Y2870618D1*
X1223183Y2867766D1*
X1226035Y2866307D1*
X1230346Y2864881D1*
X1237542D1*
X1241820Y2866307D1*
X1244705Y2867766D1*
X1247557Y2870618D1*
X1249016Y2873503D1*
Y2879240D1*
X1247557Y2882092D1*
X1244705Y2884977D1*
X1241820Y2886403D1*
X1224642Y2895666D2*
X1223183Y2898551D1*
X1218905Y2902862D1*
X1249016D1*
X1218905Y2920748D2*
X1220331Y2916437D1*
X1224642Y2913552D1*
X1231805Y2912126D1*
X1236116D1*
X1243279Y2913552D1*
X1247590Y2916437D1*
X1249016Y2920748D1*
Y2923600D1*
X1247590Y2927911D1*
X1243279Y2930763D1*
X1236116Y2932222D1*
X1231805D1*
X1224642Y2930763D1*
X1220331Y2927911D1*
X1218905Y2923600D1*
Y2920748D1*
X1224642Y2930763D2*
X1243279Y2913552D1*
X1850967Y3114050D2*
X1848115Y3112624D1*
X1845230Y3109739D1*
X1843804Y3106887D1*
Y3101150D1*
X1845230Y3098265D1*
X1848115Y3095413D1*
X1850967Y3093954D1*
X1855278Y3092528D1*
X1862474D1*
X1866752Y3093954D1*
X1869637Y3095413D1*
X1872489Y3098265D1*
X1873948Y3101150D1*
Y3106887D1*
X1872489Y3109739D1*
X1869637Y3112624D1*
X1866752Y3114050D1*
X1849574Y3123313D2*
X1848115Y3126198D1*
X1843837Y3130509D1*
X1873948D1*
X1849574Y3139773D2*
X1848115Y3142658D1*
X1843837Y3146969D1*
X1873948D1*
X1565174Y2003728D2*
X1563748Y2006580D1*
X1560863Y2009465D1*
X1558011Y2010891D1*
X1552275D1*
X1549389Y2009465D1*
X1546538Y2006580D1*
X1545078Y2003728D1*
X1543652Y1999417D1*
Y1992221D1*
X1545078Y1987943D1*
X1546538Y1985058D1*
X1549389Y1982206D1*
X1552275Y1980747D1*
X1558011D1*
X1560863Y1982206D1*
X1563748Y1985058D1*
X1565174Y1987943D1*
X1574438Y2005121D2*
X1577323Y2006580D1*
X1581634Y2010858D1*
Y1980747D1*
X1592357Y2003695D2*
Y2005121D1*
X1593783Y2008006D1*
X1595209Y2009432D1*
X1598094Y2010858D1*
X1603831D1*
X1606683Y2009432D1*
X1608109Y2008006D1*
X1609568Y2005121D1*
Y2002269D1*
X1608109Y1999384D1*
X1605257Y1995106D1*
X1590898Y1980747D1*
X1610994D1*
X1868401Y1719551D2*
X1866976Y1722403D1*
X1864090Y1725288D1*
X1861239Y1726714D1*
X1855502D1*
X1852616Y1725288D1*
X1849765Y1722403D1*
X1848305Y1719551D1*
X1846880Y1715240D1*
Y1708044D1*
X1848305Y1703766D1*
X1849765Y1700881D1*
X1852616Y1698029D1*
X1855502Y1696570D1*
X1861239D1*
X1864090Y1698029D1*
X1866976Y1700881D1*
X1868401Y1703766D1*
X1877665Y1720943D2*
X1880550Y1722403D1*
X1884861Y1726680D1*
Y1696570D1*
X1897010Y1726680D2*
X1912762D1*
X1904173Y1715206D1*
X1908484D1*
X1911336Y1713781D1*
X1912762Y1712355D1*
X1914221Y1708044D1*
Y1705192D1*
X1912762Y1700881D1*
X1909910Y1697996D1*
X1905599Y1696570D1*
X1901288D1*
X1897010Y1697996D1*
X1895584Y1699455D1*
X1894125Y1702307D1*
X1495459Y1638727D2*
X1494033Y1641578D1*
X1491148Y1644463D1*
X1488296Y1645889D1*
X1482559D1*
X1479674Y1644463D1*
X1476822Y1641578D1*
X1475363Y1638727D1*
X1473937Y1634415D1*
Y1627219D1*
X1475363Y1622942D1*
X1476822Y1620056D1*
X1479674Y1617205D1*
X1482559Y1615745D1*
X1488296D1*
X1491148Y1617205D1*
X1494033Y1620056D1*
X1495459Y1622942D1*
X1504722Y1640119D2*
X1507607Y1641578D1*
X1511918Y1645856D1*
Y1615745D1*
X1535541D2*
Y1645856D1*
X1521182Y1625793D1*
X1542704D1*
X1179101Y2732262D2*
X1177675Y2735114D1*
X1174790Y2737999D1*
X1171938Y2739425D1*
X1166201D1*
X1163316Y2737999D1*
X1160464Y2735114D1*
X1159005Y2732262D1*
X1157579Y2727951D1*
Y2720755D1*
X1159005Y2716477D1*
X1160464Y2713592D1*
X1163316Y2710740D1*
X1166201Y2709281D1*
X1171938D1*
X1174790Y2710740D1*
X1177675Y2713592D1*
X1179101Y2716477D1*
X1188364Y2733655D2*
X1191250Y2735114D1*
X1195561Y2739392D1*
Y2709281D1*
X1222035Y2739392D2*
X1207709D1*
X1206283Y2726492D1*
X1207709Y2727918D1*
X1212020Y2729377D1*
X1216298D1*
X1220609Y2727918D1*
X1223494Y2725066D1*
X1224920Y2720755D1*
Y2717903D1*
X1223494Y2713592D1*
X1220609Y2710707D1*
X1216298Y2709281D1*
X1212020D1*
X1207709Y2710707D1*
X1206283Y2712166D1*
X1204824Y2715018D1*
X1686741Y2037817D2*
X1685315Y2040669D1*
X1682430Y2043554D1*
X1679578Y2044980D1*
X1673841D1*
X1670956Y2043554D1*
X1668104Y2040669D1*
X1666645Y2037817D1*
X1665219Y2033506D1*
Y2026310D1*
X1666645Y2022032D1*
X1668104Y2019147D1*
X1670956Y2016295D1*
X1673841Y2014836D1*
X1679578D1*
X1682430Y2016295D1*
X1685315Y2019147D1*
X1686741Y2022032D1*
X1696005Y2039210D2*
X1698890Y2040669D1*
X1703201Y2044947D1*
Y2014836D1*
X1729675Y2040669D2*
X1728249Y2043521D1*
X1723938Y2044947D1*
X1721086D1*
X1716775Y2043521D1*
X1713890Y2039210D1*
X1712464Y2032047D1*
Y2024884D1*
X1713890Y2019147D1*
X1716775Y2016262D1*
X1721086Y2014836D1*
X1722512D1*
X1726790Y2016262D1*
X1729675Y2019147D1*
X1731101Y2023458D1*
Y2024884D1*
X1729675Y2029195D1*
X1726790Y2032047D1*
X1722512Y2033473D1*
X1721086D1*
X1716775Y2032047D1*
X1713890Y2029195D1*
X1712464Y2024884D1*
X1376207Y2065657D2*
X1374781Y2068509D1*
X1371896Y2071394D1*
X1369044Y2072820D1*
X1363307D1*
X1360422Y2071394D1*
X1357570Y2068509D1*
X1356111Y2065657D1*
X1354685Y2061346D1*
Y2054150D1*
X1356111Y2049872D1*
X1357570Y2046987D1*
X1360422Y2044135D1*
X1363307Y2042676D1*
X1369044D1*
X1371896Y2044135D1*
X1374781Y2046987D1*
X1376207Y2049872D1*
X1385471Y2067050D2*
X1388356Y2068509D1*
X1392667Y2072787D1*
Y2042676D1*
X1407667D2*
X1422026Y2072787D1*
X1401930D1*
X1886517Y2557625D2*
X1883665Y2556200D1*
X1880780Y2553314D1*
X1879354Y2550463D1*
Y2544726D1*
X1880780Y2541841D1*
X1883665Y2538989D1*
X1886517Y2537530D1*
X1890828Y2536104D1*
X1898024D1*
X1902302Y2537530D1*
X1905187Y2538989D1*
X1908039Y2541841D1*
X1909498Y2544726D1*
Y2550463D1*
X1908039Y2553314D1*
X1905187Y2556199D1*
X1902302Y2557625D1*
X1885124Y2566889D2*
X1883665Y2569774D1*
X1879387Y2574085D1*
X1909498D1*
X1879387Y2590512D2*
X1880813Y2586234D1*
X1883665Y2584775D1*
X1886550D1*
X1889402Y2586234D1*
X1890861Y2589086D1*
X1892287Y2594823D1*
X1893713Y2599134D1*
X1896598Y2601985D1*
X1899450Y2603411D1*
X1903761D1*
X1906613Y2601985D1*
X1908072Y2600560D1*
X1909498Y2596248D1*
Y2590512D1*
X1908072Y2586234D1*
X1906613Y2584775D1*
X1903761Y2583349D1*
X1899450D1*
X1896598Y2584775D1*
X1893713Y2587660D1*
X1892287Y2591937D1*
X1890861Y2597674D1*
X1889402Y2600560D1*
X1886550Y2601985D1*
X1883665Y2601986D1*
X1880813Y2600560D1*
X1879387Y2596249D1*
Y2590512D1*
X459453Y1685059D2*
X458027Y1687910D1*
X455142Y1690796D1*
X452290Y1692221D1*
X446553D1*
X443668Y1690796D1*
X440816Y1687910D1*
X439357Y1685059D1*
X437931Y1680748D1*
Y1673551D1*
X439357Y1669274D1*
X440816Y1666388D1*
X443668Y1663537D1*
X446553Y1662077D1*
X452290D1*
X455142Y1663537D1*
X458027Y1666388D1*
X459453Y1669274D1*
X468717Y1686451D2*
X471602Y1687910D1*
X475913Y1692188D1*
Y1662077D1*
X503846Y1682173D2*
X502387Y1677862D1*
X499535Y1674977D1*
X495224Y1673551D1*
X493798D1*
X489487Y1674977D1*
X486635Y1677862D1*
X485176Y1682173D1*
Y1683599D1*
X486635Y1687910D1*
X489487Y1690762D1*
X493798Y1692188D1*
X495224D1*
X499535Y1690762D1*
X502387Y1687910D1*
X503846Y1682173D1*
Y1674977D1*
X502387Y1667814D1*
X499535Y1663503D1*
X495224Y1662077D1*
X492372D1*
X488061Y1663503D1*
X486635Y1666388D1*
X1710514Y593399D2*
X1707662Y591973D1*
X1704777Y589088D1*
X1703351Y586236D1*
Y580499D1*
X1704777Y577614D1*
X1707662Y574762D1*
X1710514Y573303D1*
X1714825Y571877D1*
X1722021D1*
X1726299Y573303D1*
X1729184Y574762D1*
X1732036Y577614D1*
X1733495Y580499D1*
Y586236D1*
X1732036Y589088D1*
X1729184Y591973D1*
X1726299Y593399D1*
X1710547Y604122D2*
X1709121D1*
X1706236Y605548D1*
X1704810Y606974D1*
X1703384Y609859D1*
Y615596D1*
X1704810Y618448D1*
X1706236Y619874D1*
X1709121Y621333D1*
X1711973D1*
X1714858Y619874D1*
X1719136Y617022D1*
X1733495Y602663D1*
Y622759D1*
X1703384Y640644D2*
X1704810Y636333D1*
X1709121Y633448D1*
X1716284Y632022D1*
X1720595D1*
X1727758Y633448D1*
X1732069Y636333D1*
X1733495Y640644D1*
Y643496D1*
X1732069Y647807D1*
X1727758Y650659D1*
X1720595Y652118D1*
X1716284D1*
X1709121Y650659D1*
X1704810Y647807D1*
X1703384Y643496D1*
Y640644D1*
X1709121Y650659D2*
X1727758Y633448D1*
X745203Y536956D2*
X743777Y539808D1*
X740892Y542693D1*
X738040Y544119D1*
X732303D1*
X729418Y542693D1*
X726566Y539808D1*
X725107Y536956D1*
X723681Y532645D1*
Y525449D1*
X725107Y521171D1*
X726566Y518286D1*
X729418Y515434D1*
X732303Y513975D1*
X738040D1*
X740892Y515434D1*
X743777Y518286D1*
X745203Y521171D1*
X755926Y536923D2*
Y538349D1*
X757352Y541234D1*
X758778Y542660D1*
X761663Y544086D1*
X767400D1*
X770252Y542660D1*
X771678Y541234D1*
X773137Y538349D1*
Y535497D1*
X771678Y532612D1*
X768826Y528334D1*
X754467Y513975D1*
X774563D1*
X783826Y538349D2*
X786711Y539808D1*
X791022Y544086D1*
Y513975D1*
X484959Y523449D2*
X482107Y522023D1*
X479222Y519138D1*
X477796Y516286D1*
Y510549D1*
X479222Y507664D1*
X482107Y504812D1*
X484959Y503353D1*
X489270Y501927D1*
X496466D1*
X500744Y503353D1*
X503629Y504812D1*
X506481Y507664D1*
X507940Y510549D1*
Y516286D1*
X506481Y519138D1*
X503629Y522023D1*
X500744Y523449D1*
X484992Y534172D2*
X483566D1*
X480681Y535598D1*
X479255Y537024D1*
X477829Y539909D1*
Y545646D1*
X479255Y548497D1*
X480681Y549923D1*
X483566Y551383D1*
X486418D1*
X489303Y549923D1*
X493581Y547071D1*
X507940Y532712D1*
Y552808D1*
X484992Y563531D2*
X483566D1*
X480681Y564957D1*
X479255Y566383D1*
X477829Y569268D1*
Y575005D1*
X479255Y577857D1*
X480681Y579283D1*
X483566Y580742D1*
X486418D1*
X489303Y579283D1*
X493581Y576431D1*
X507940Y562072D1*
Y582168D1*
X1592500Y1178262D2*
X1591074Y1181114D1*
X1588189Y1183999D1*
X1585337Y1185425D1*
X1579600D1*
X1576715Y1183999D1*
X1573863Y1181114D1*
X1572404Y1178262D1*
X1570978Y1173951D1*
Y1166755D1*
X1572404Y1162477D1*
X1573863Y1159592D1*
X1576715Y1156740D1*
X1579600Y1155281D1*
X1585337D1*
X1588189Y1156740D1*
X1591074Y1159592D1*
X1592500Y1162477D1*
X1603223Y1178229D2*
Y1179655D1*
X1604649Y1182540D1*
X1606075Y1183966D1*
X1608960Y1185392D1*
X1614697D1*
X1617549Y1183966D1*
X1618975Y1182540D1*
X1620434Y1179655D1*
Y1176803D1*
X1618975Y1173918D1*
X1616123Y1169640D1*
X1601764Y1155281D1*
X1621860D1*
X1634008Y1185392D2*
X1649760D1*
X1641171Y1173918D1*
X1645482D1*
X1648334Y1172492D1*
X1649760Y1171066D1*
X1651219Y1166755D1*
Y1163903D1*
X1649760Y1159592D1*
X1646908Y1156707D1*
X1642597Y1155281D1*
X1638286D1*
X1634008Y1156707D1*
X1632582Y1158166D1*
X1631123Y1161018D1*
X970376Y676181D2*
X968950Y679032D1*
X966065Y681918D1*
X963213Y683344D1*
X957476D1*
X954591Y681918D1*
X951739Y679032D1*
X950280Y676181D1*
X948854Y671870D1*
Y664673D1*
X950280Y660396D1*
X951739Y657511D1*
X954591Y654659D1*
X957476Y653200D1*
X963213D1*
X966065Y654659D1*
X968950Y657511D1*
X970376Y660396D1*
X981099Y676147D2*
Y677573D1*
X982525Y680458D1*
X983951Y681884D1*
X986836Y683310D1*
X992573D1*
X995425Y681884D1*
X996851Y680458D1*
X998310Y677573D1*
Y674721D1*
X996851Y671836D1*
X993999Y667559D1*
X979640Y653200D1*
X999736D1*
X1023358D2*
Y683310D1*
X1008999Y663248D1*
X1030521D1*
X939385Y1093581D2*
X937959Y1096433D1*
X935074Y1099318D1*
X932222Y1100744D1*
X926485D1*
X923600Y1099318D1*
X920748Y1096433D1*
X919289Y1093581D1*
X917863Y1089270D1*
Y1082074D1*
X919289Y1077796D1*
X920748Y1074911D1*
X923600Y1072059D1*
X926485Y1070600D1*
X932222D1*
X935074Y1072059D1*
X937959Y1074911D1*
X939385Y1077796D1*
X950107Y1093548D2*
Y1094974D1*
X951533Y1097859D1*
X952959Y1099285D1*
X955844Y1100711D1*
X961581D1*
X964433Y1099285D1*
X965859Y1097859D1*
X967318Y1094974D1*
Y1092122D1*
X965859Y1089237D1*
X963007Y1084959D1*
X948648Y1070600D1*
X968744D1*
X995219Y1100711D2*
X980893D1*
X979467Y1087811D1*
X980893Y1089237D1*
X985204Y1090696D1*
X989482D1*
X993793Y1089237D1*
X996678Y1086385D1*
X998104Y1082074D1*
Y1079222D1*
X996678Y1074911D1*
X993793Y1072026D1*
X989482Y1070600D1*
X985204D1*
X980893Y1072026D1*
X979467Y1073485D1*
X978008Y1076337D1*
X512525Y1332060D2*
X511099Y1334912D1*
X508214Y1337797D1*
X505362Y1339223D1*
X499625D1*
X496740Y1337797D1*
X493888Y1334912D1*
X492429Y1332060D1*
X491003Y1327749D1*
Y1320553D1*
X492429Y1316275D1*
X493888Y1313390D1*
X496740Y1310538D1*
X499625Y1309079D1*
X505362D1*
X508214Y1310538D1*
X511099Y1313390D1*
X512525Y1316275D1*
X523248Y1332027D2*
Y1333453D1*
X524674Y1336338D1*
X526099Y1337764D1*
X528985Y1339190D1*
X534722D1*
X537573Y1337764D1*
X538999Y1336338D1*
X540458Y1333453D1*
Y1330601D1*
X538999Y1327716D1*
X536147Y1323438D1*
X521788Y1309079D1*
X541884D1*
X568359Y1334912D2*
X566933Y1337764D1*
X562622Y1339190D1*
X559770D1*
X555459Y1337764D1*
X552574Y1333453D1*
X551148Y1326290D1*
Y1319127D1*
X552574Y1313390D1*
X555459Y1310505D1*
X559770Y1309079D1*
X561196D1*
X565474Y1310505D1*
X568359Y1313390D1*
X569785Y1317701D1*
Y1319127D1*
X568359Y1323438D1*
X565474Y1326290D1*
X561196Y1327716D1*
X559770D1*
X555459Y1326290D1*
X552574Y1323438D1*
X551148Y1319127D1*
X443669Y1057112D2*
X440817Y1055686D1*
X437932Y1052801D1*
X436506Y1049949D1*
Y1044212D1*
X437932Y1041327D1*
X440817Y1038475D1*
X443669Y1037016D1*
X447980Y1035590D1*
X455176D1*
X459454Y1037016D1*
X462339Y1038475D1*
X465191Y1041327D1*
X466650Y1044212D1*
Y1049949D1*
X465191Y1052801D1*
X462339Y1055686D1*
X459454Y1057112D1*
X443702Y1067834D2*
X442276D1*
X439391Y1069260D1*
X437965Y1070686D1*
X436539Y1073571D1*
Y1079308D1*
X437965Y1082160D1*
X439391Y1083586D1*
X442276Y1085045D1*
X445128D1*
X448013Y1083586D1*
X452291Y1080734D1*
X466650Y1066375D1*
Y1086471D1*
Y1101472D2*
X436539Y1115831D1*
Y1095735D1*
X723716Y800473D2*
X720864Y799047D1*
X717979Y796162D1*
X716553Y793311D1*
Y787574D1*
X717979Y784688D1*
X720864Y781837D1*
X723716Y780377D1*
X728027Y778952D1*
X735223D1*
X739501Y780377D1*
X742386Y781837D1*
X745238Y784688D1*
X746697Y787574D1*
Y793310D1*
X745238Y796162D1*
X742386Y799047D1*
X739501Y800473D1*
X723749Y811196D2*
X722323D1*
X719438Y812622D1*
X718012Y814048D1*
X716586Y816933D1*
Y822670D1*
X718012Y825522D1*
X719438Y826948D1*
X722323Y828407D1*
X725175D1*
X728060Y826948D1*
X732338Y824096D1*
X746697Y809737D1*
Y829833D1*
X716586Y846259D2*
X718012Y841982D1*
X720864Y840522D1*
X723749D1*
X726601Y841982D1*
X728060Y844833D1*
X729486Y850570D1*
X730912Y854881D1*
X733797Y857733D1*
X736649Y859159D1*
X740960D1*
X743812Y857733D1*
X745271Y856307D1*
X746697Y851996D1*
Y846259D1*
X745271Y841982D1*
X743812Y840522D1*
X740960Y839096D1*
X736649D1*
X733797Y840522D1*
X730912Y843407D1*
X729486Y847685D1*
X728060Y853422D1*
X726601Y856307D1*
X723749Y857733D1*
X720864D1*
X718012Y856307D1*
X716586Y851996D1*
Y846259D1*
X626725Y1132902D2*
X625299Y1135754D1*
X622414Y1138639D1*
X619562Y1140065D1*
X613825D1*
X610940Y1138639D1*
X608088Y1135754D1*
X606629Y1132902D1*
X605203Y1128591D1*
Y1121395D1*
X606629Y1117117D1*
X608088Y1114232D1*
X610940Y1111380D1*
X613825Y1109921D1*
X619562D1*
X622414Y1111380D1*
X625299Y1114232D1*
X626725Y1117117D1*
X637448Y1132869D2*
Y1134295D1*
X638873Y1137180D1*
X640299Y1138606D1*
X643184Y1140032D1*
X648921D1*
X651773Y1138606D1*
X653199Y1137180D1*
X654658Y1134295D1*
Y1131443D1*
X653199Y1128558D1*
X650347Y1124280D1*
X635988Y1109921D1*
X656084D1*
X684018Y1130017D2*
X682559Y1125706D1*
X679707Y1122821D1*
X675396Y1121395D1*
X673970D1*
X669659Y1122821D1*
X666807Y1125706D1*
X665348Y1130017D1*
Y1131443D1*
X666807Y1135754D1*
X669659Y1138606D1*
X673970Y1140032D1*
X675396D1*
X679707Y1138606D1*
X682559Y1135754D1*
X684018Y1130017D1*
Y1122821D1*
X682559Y1115658D1*
X679707Y1111347D1*
X675396Y1109921D1*
X672544D1*
X668233Y1111347D1*
X666807Y1114232D1*
X1152718Y572224D2*
X1151292Y575076D1*
X1148407Y577961D1*
X1145555Y579387D1*
X1139818D1*
X1136933Y577961D1*
X1134081Y575076D1*
X1132622Y572224D1*
X1131196Y567913D1*
Y560717D1*
X1132622Y556439D1*
X1134081Y553554D1*
X1136933Y550702D1*
X1139818Y549243D1*
X1145555D1*
X1148407Y550702D1*
X1151292Y553554D1*
X1152718Y556439D1*
X1164867Y579354D2*
X1180618D1*
X1172029Y567880D1*
X1176340D1*
X1179192Y566454D1*
X1180618Y565028D1*
X1182077Y560717D1*
Y557865D1*
X1180618Y553554D1*
X1177766Y550669D1*
X1173455Y549243D1*
X1169144D1*
X1164867Y550669D1*
X1163441Y552128D1*
X1161981Y554980D1*
X1199963Y579354D2*
X1195652Y577928D1*
X1192767Y573617D1*
X1191341Y566454D1*
Y562143D1*
X1192767Y554980D1*
X1195652Y550669D1*
X1199963Y549243D1*
X1202815D1*
X1207126Y550669D1*
X1209978Y554980D1*
X1211437Y562143D1*
Y566454D1*
X1209978Y573617D1*
X1207126Y577928D1*
X1202815Y579354D1*
X1199963D1*
X1209978Y573617D2*
X1192767Y554980D1*
X1401159Y2698707D2*
X1399733Y2701559D1*
X1396848Y2704444D1*
X1393996Y2705870D1*
X1388259D1*
X1385374Y2704444D1*
X1382522Y2701559D1*
X1381063Y2698707D1*
X1379637Y2694396D1*
Y2687200D1*
X1381063Y2682922D1*
X1382522Y2680037D1*
X1385374Y2677185D1*
X1388259Y2675726D1*
X1393996D1*
X1396848Y2677185D1*
X1399733Y2680037D1*
X1401159Y2682922D1*
X1413307Y2705837D2*
X1429059D1*
X1420470Y2694363D1*
X1424781D1*
X1427633Y2692937D1*
X1429059Y2691511D1*
X1430518Y2687200D1*
Y2684348D1*
X1429059Y2680037D1*
X1426207Y2677152D1*
X1421896Y2675726D1*
X1417585D1*
X1413307Y2677152D1*
X1411881Y2678611D1*
X1410422Y2681463D1*
X1439782Y2700100D2*
X1442667Y2701559D1*
X1446978Y2705837D1*
Y2675726D1*
X468063Y3074635D2*
X465211Y3073209D1*
X462326Y3070324D1*
X460900Y3067472D1*
Y3061735D1*
X462326Y3058850D1*
X465211Y3055998D1*
X468063Y3054539D1*
X472374Y3053113D1*
X479570D1*
X483848Y3054539D1*
X486733Y3055998D1*
X489585Y3058850D1*
X491044Y3061735D1*
Y3067472D1*
X489585Y3070324D1*
X486733Y3073209D1*
X483848Y3074635D1*
X460933Y3086784D2*
Y3102536D1*
X472407Y3093947D1*
Y3098258D1*
X473833Y3101110D1*
X475259Y3102536D1*
X479570Y3103995D1*
X482422D1*
X486733Y3102536D1*
X489618Y3099684D1*
X491044Y3095373D1*
Y3091062D1*
X489618Y3086784D1*
X488159Y3085358D1*
X485307Y3083899D1*
X468096Y3114717D2*
X466670D1*
X463785Y3116143D1*
X462359Y3117569D1*
X460933Y3120454D1*
Y3126191D1*
X462359Y3129043D1*
X463785Y3130469D1*
X466670Y3131928D1*
X469522D1*
X472407Y3130469D1*
X476685Y3127617D1*
X491044Y3113258D1*
Y3133354D1*
X949427Y4086366D2*
X948001Y4089218D1*
X945116Y4092103D1*
X942264Y4093529D1*
X936527D1*
X933642Y4092103D1*
X930790Y4089218D1*
X929331Y4086366D1*
X927905Y4082055D1*
Y4074858D1*
X929331Y4070581D1*
X930790Y4067696D1*
X933642Y4064844D1*
X936527Y4063385D1*
X942264D1*
X945116Y4064844D1*
X948001Y4067696D1*
X949427Y4070581D1*
X961575Y4093495D2*
X977327D1*
X968738Y4082021D1*
X973049D1*
X975901Y4080595D1*
X977327Y4079170D1*
X978786Y4074858D1*
Y4072007D1*
X977327Y4067696D1*
X974475Y4064810D1*
X970164Y4063385D1*
X965853D1*
X961575Y4064810D1*
X960149Y4066270D1*
X958690Y4069122D1*
X990935Y4093495D2*
X1006687D1*
X998098Y4082021D1*
X1002409D1*
X1005261Y4080595D1*
X1006687Y4079170D1*
X1008146Y4074858D1*
Y4072007D1*
X1006687Y4067696D1*
X1003835Y4064810D1*
X999524Y4063385D1*
X995213D1*
X990935Y4064810D1*
X989509Y4066270D1*
X988050Y4069122D1*
X704034Y4563629D2*
X702608Y4566481D1*
X699723Y4569366D1*
X696871Y4570792D1*
X691134D1*
X688249Y4569366D1*
X685397Y4566481D1*
X683938Y4563629D1*
X682512Y4559318D1*
Y4552122D1*
X683938Y4547844D1*
X685397Y4544959D1*
X688249Y4542107D1*
X691134Y4540648D1*
X696871D1*
X699723Y4542107D1*
X702608Y4544959D1*
X704034Y4547844D1*
X716182Y4570759D2*
X731934D1*
X723345Y4559285D1*
X727656D1*
X730508Y4557859D1*
X731934Y4556433D1*
X733393Y4552122D1*
Y4549270D1*
X731934Y4544959D1*
X729082Y4542074D1*
X724771Y4540648D1*
X720460D1*
X716182Y4542074D1*
X714756Y4543533D1*
X713297Y4546385D1*
X757016Y4540648D2*
Y4570759D1*
X742657Y4550696D1*
X764179D1*
X696273Y3919793D2*
X694847Y3922645D1*
X691962Y3925530D1*
X689110Y3926956D1*
X683373D1*
X680488Y3925530D1*
X677636Y3922645D1*
X676177Y3919793D1*
X674751Y3915482D1*
Y3908286D1*
X676177Y3904008D1*
X677636Y3901123D1*
X680488Y3898271D1*
X683373Y3896812D1*
X689110D1*
X691962Y3898271D1*
X694847Y3901123D1*
X696273Y3904008D1*
X708422Y3926923D2*
X724173D1*
X715585Y3915449D1*
X719896D1*
X722748Y3914023D1*
X724173Y3912597D1*
X725633Y3908286D1*
Y3905434D1*
X724173Y3901123D1*
X721322Y3898238D1*
X717011Y3896812D1*
X712700D1*
X708422Y3898238D1*
X706996Y3899697D1*
X705537Y3902549D1*
X752107Y3926923D2*
X737781D1*
X736355Y3914023D1*
X737781Y3915449D1*
X742092Y3916908D1*
X746370D1*
X750681Y3915449D1*
X753566Y3912597D1*
X754992Y3908286D1*
Y3905434D1*
X753566Y3901123D1*
X750681Y3898238D1*
X746370Y3896812D1*
X742092D1*
X737781Y3898238D1*
X736355Y3899697D1*
X734896Y3902549D1*
X1277936Y1741193D2*
Y1711049D1*
X1287984D1*
X1292296Y1712508D1*
X1295181Y1715360D1*
X1296607Y1718245D1*
X1298032Y1722523D1*
Y1729719D1*
X1296607Y1734030D1*
X1295181Y1736882D1*
X1292296Y1739767D1*
X1287984Y1741193D1*
X1277936D1*
X1310181Y1741159D2*
X1325933D1*
X1317344Y1729685D1*
X1321655D1*
X1324507Y1728260D1*
X1325933Y1726834D1*
X1327392Y1722523D1*
Y1719671D1*
X1325933Y1715360D1*
X1323081Y1712475D1*
X1318770Y1711049D1*
X1314459D1*
X1310181Y1712475D1*
X1308755Y1713934D1*
X1307296Y1716786D1*
X1451506Y4017073D2*
Y3986929D1*
X1482292Y4009910D2*
X1480866Y4012762D1*
X1477981Y4015647D1*
X1475129Y4017073D1*
X1469392D1*
X1466507Y4015647D1*
X1463655Y4012762D1*
X1462196Y4009910D1*
X1460770Y4005599D1*
Y3998403D1*
X1462196Y3994125D1*
X1463655Y3991240D1*
X1466507Y3988388D1*
X1469392Y3986929D1*
X1475129D1*
X1477981Y3988388D1*
X1480866Y3991240D1*
X1482292Y3994125D1*
X1491555Y4011303D2*
X1494440Y4012762D1*
X1498751Y4017040D1*
Y3986929D1*
X1440853Y4398174D2*
Y4368030D1*
X1471638Y4391011D2*
X1470212Y4393863D1*
X1467327Y4396748D1*
X1464475Y4398174D1*
X1458738D1*
X1455853Y4396748D1*
X1453001Y4393863D1*
X1451542Y4391011D1*
X1450116Y4386700D1*
Y4379504D1*
X1451542Y4375226D1*
X1453001Y4372341D1*
X1455853Y4369489D1*
X1458738Y4368030D1*
X1464475D1*
X1467327Y4369489D1*
X1470212Y4372341D1*
X1471638Y4375226D1*
X1482361Y4390978D2*
Y4392404D1*
X1483787Y4395289D1*
X1485213Y4396715D1*
X1488098Y4398141D1*
X1493835D1*
X1496687Y4396715D1*
X1498113Y4395289D1*
X1499572Y4392404D1*
Y4389552D1*
X1498113Y4386667D1*
X1495261Y4382389D1*
X1480902Y4368030D1*
X1500998D1*
X1775597Y2255942D2*
Y2225798D1*
X1806382Y2248779D2*
X1804957Y2251631D1*
X1802071Y2254516D1*
X1799220Y2255942D1*
X1793483D1*
X1790598Y2254516D1*
X1787746Y2251631D1*
X1786286Y2248779D1*
X1784861Y2244468D1*
Y2237272D1*
X1786286Y2232994D1*
X1787746Y2230109D1*
X1790598Y2227257D1*
X1793483Y2225798D1*
X1799220D1*
X1802071Y2227257D1*
X1804957Y2230109D1*
X1806382Y2232994D1*
X1818531Y2255909D2*
X1834283D1*
X1825694Y2244435D1*
X1830005D1*
X1832857Y2243009D1*
X1834283Y2241583D1*
X1835742Y2237272D1*
Y2234420D1*
X1834283Y2230109D1*
X1831431Y2227224D1*
X1827120Y2225798D1*
X1822809D1*
X1818531Y2227224D1*
X1817105Y2228683D1*
X1815646Y2231535D1*
X1295398Y2440994D2*
Y2410850D1*
X1326184Y2433831D2*
X1324758Y2436683D1*
X1321873Y2439568D1*
X1319021Y2440994D1*
X1313284D1*
X1310399Y2439568D1*
X1307547Y2436683D1*
X1306088Y2433831D1*
X1304662Y2429520D1*
Y2422324D1*
X1306088Y2418047D1*
X1307547Y2415161D1*
X1310399Y2412310D1*
X1313284Y2410850D1*
X1319021D1*
X1321873Y2412310D1*
X1324758Y2415161D1*
X1326184Y2418047D1*
X1349807Y2410850D2*
Y2440961D1*
X1335447Y2420898D1*
X1356969D1*
X1586989Y2574830D2*
Y2544686D1*
X1617775Y2567667D2*
X1616349Y2570519D1*
X1613464Y2573404D1*
X1610612Y2574830D1*
X1604875D1*
X1601990Y2573404D1*
X1599138Y2570519D1*
X1597679Y2567667D1*
X1596253Y2563356D1*
Y2556160D1*
X1597679Y2551882D1*
X1599138Y2548997D1*
X1601990Y2546145D1*
X1604875Y2544686D1*
X1610612D1*
X1613464Y2546145D1*
X1616349Y2548997D1*
X1617775Y2551882D1*
X1644249Y2574797D2*
X1629923D1*
X1628498Y2561897D1*
X1629923Y2563323D1*
X1634235Y2564782D1*
X1638512D1*
X1642823Y2563323D1*
X1645708Y2560471D1*
X1647134Y2556160D1*
Y2553308D1*
X1645708Y2548997D1*
X1642823Y2546112D1*
X1638512Y2544686D1*
X1634235D1*
X1629923Y2546112D1*
X1628498Y2547571D1*
X1627038Y2550423D1*
X628569Y2014718D2*
Y1984574D1*
X659355Y2007555D2*
X657929Y2010406D1*
X655044Y2013292D1*
X652192Y2014718D1*
X646455D1*
X643570Y2013292D1*
X640718Y2010406D1*
X639259Y2007555D1*
X637833Y2003244D1*
Y1996047D1*
X639259Y1991770D1*
X640718Y1988885D1*
X643570Y1986033D1*
X646455Y1984574D1*
X652192D1*
X655044Y1986033D1*
X657929Y1988885D1*
X659355Y1991770D1*
X685829Y2010406D2*
X684403Y2013258D1*
X680092Y2014684D1*
X677240D1*
X672929Y2013258D1*
X670044Y2008947D1*
X668618Y2001784D1*
Y1994622D1*
X670044Y1988885D1*
X672929Y1985999D1*
X677240Y1984574D1*
X678666D1*
X682944Y1985999D1*
X685829Y1988885D1*
X687255Y1993196D1*
Y1994622D1*
X685829Y1998933D1*
X682944Y2001784D1*
X678666Y2003210D1*
X677240D1*
X672929Y2001784D1*
X670044Y1998933D1*
X668618Y1994622D1*
X1433752Y1849795D2*
Y1819651D1*
X1464537Y1842632D2*
X1463111Y1845484D1*
X1460226Y1848369D1*
X1457374Y1849795D1*
X1451637D1*
X1448752Y1848369D1*
X1445900Y1845484D1*
X1444441Y1842632D1*
X1443015Y1838321D1*
Y1831125D1*
X1444441Y1826847D1*
X1445900Y1823962D1*
X1448752Y1821110D1*
X1451637Y1819651D1*
X1457374D1*
X1460226Y1821110D1*
X1463111Y1823962D1*
X1464537Y1826847D1*
X1479538Y1819651D2*
X1493897Y1849762D1*
X1473801D1*
X512451Y1428745D2*
Y1398601D1*
X543236Y1421582D2*
X541810Y1424434D1*
X538925Y1427319D1*
X536073Y1428745D1*
X530336D1*
X527451Y1427319D1*
X524599Y1424434D1*
X523140Y1421582D1*
X521714Y1417271D1*
Y1410075D1*
X523140Y1405797D1*
X524599Y1402912D1*
X527451Y1400060D1*
X530336Y1398601D1*
X536073D1*
X538925Y1400060D1*
X541810Y1402912D1*
X543236Y1405797D1*
X559663Y1428712D2*
X555385Y1427286D1*
X553926Y1424434D1*
Y1421549D1*
X555385Y1418697D1*
X558237Y1417238D1*
X563974Y1415812D1*
X568285Y1414386D1*
X571137Y1411501D1*
X572563Y1408649D1*
Y1404338D1*
X571137Y1401486D1*
X569711Y1400027D1*
X565400Y1398601D1*
X559663D1*
X555385Y1400027D1*
X553926Y1401486D1*
X552500Y1404338D1*
Y1408649D1*
X553926Y1411501D1*
X556811Y1414386D1*
X561089Y1415812D1*
X566826Y1417238D1*
X569711Y1418697D1*
X571137Y1421549D1*
Y1424434D1*
X569711Y1427286D1*
X565400Y1428712D1*
X559663D1*
X1795655Y999309D2*
Y969165D1*
X1826441Y992146D2*
X1825015Y994998D1*
X1822130Y997883D1*
X1819278Y999309D1*
X1813541D1*
X1810656Y997883D1*
X1807804Y994998D1*
X1806345Y992146D1*
X1804919Y987835D1*
Y980639D1*
X1806345Y976361D1*
X1807804Y973476D1*
X1810656Y970624D1*
X1813541Y969165D1*
X1819278D1*
X1822130Y970624D1*
X1825015Y973476D1*
X1826441Y976361D1*
X1854374Y989261D2*
X1852915Y984950D1*
X1850063Y982065D1*
X1845752Y980639D1*
X1844326D1*
X1840015Y982065D1*
X1837163Y984950D1*
X1835704Y989261D1*
Y990687D1*
X1837163Y994998D1*
X1840015Y997850D1*
X1844326Y999276D1*
X1845752D1*
X1850063Y997850D1*
X1852915Y994998D1*
X1854374Y989261D1*
Y982065D1*
X1852915Y974902D1*
X1850063Y970591D1*
X1845752Y969165D1*
X1842900D1*
X1838589Y970591D1*
X1837163Y973476D1*
X474060Y795977D2*
Y765833D1*
X504846Y788814D2*
X503420Y791666D1*
X500535Y794551D1*
X497683Y795977D1*
X491946D1*
X489061Y794551D1*
X486209Y791666D1*
X484750Y788814D1*
X483324Y784503D1*
Y777307D1*
X484750Y773029D1*
X486209Y770144D1*
X489061Y767292D1*
X491946Y765833D1*
X497683D1*
X500535Y767292D1*
X503420Y770144D1*
X504846Y773029D1*
X514109Y790207D2*
X516994Y791666D1*
X521305Y795944D1*
Y765833D1*
X539191Y795944D2*
X534880Y794518D1*
X531995Y790207D1*
X530569Y783044D1*
Y778733D1*
X531995Y771570D1*
X534880Y767259D1*
X539191Y765833D1*
X542043D1*
X546354Y767259D1*
X549206Y771570D1*
X550665Y778733D1*
Y783044D1*
X549206Y790207D1*
X546354Y794518D1*
X542043Y795944D1*
X539191D1*
X549206Y790207D2*
X531995Y771570D1*
X448419Y3662227D2*
Y3639279D1*
X446993Y3634968D1*
X445534Y3633542D1*
X442682Y3632083D1*
X439797D1*
X436945Y3633542D1*
X435520Y3634968D1*
X434060Y3639279D1*
Y3642131D1*
X464846Y3662194D2*
X460568Y3660768D1*
X459109Y3657916D1*
Y3655031D1*
X460568Y3652179D1*
X463420Y3650720D1*
X469157Y3649294D1*
X473468Y3647868D1*
X476320Y3644983D1*
X477746Y3642131D1*
Y3637820D1*
X476320Y3634968D1*
X474894Y3633509D1*
X470583Y3632083D1*
X464846D1*
X460568Y3633509D1*
X459109Y3634968D1*
X457683Y3637820D1*
Y3642131D1*
X459109Y3644983D1*
X461994Y3647868D1*
X466272Y3649294D1*
X472009Y3650720D1*
X474894Y3652179D1*
X476320Y3655031D1*
Y3657916D1*
X474894Y3660768D1*
X470583Y3662194D1*
X464846D1*
X1261117Y2345809D2*
Y2322861D1*
X1259691Y2318550D1*
X1258232Y2317124D1*
X1255380Y2315665D1*
X1252495D1*
X1249643Y2317124D1*
X1248217Y2318550D1*
X1246758Y2322861D1*
Y2325713D1*
X1270380Y2330024D2*
X1283313D1*
X1287591Y2331450D1*
X1289050Y2332909D1*
X1290476Y2335761D1*
Y2340072D1*
X1289050Y2342924D1*
X1287591Y2344383D1*
X1283313Y2345809D1*
X1270380D1*
Y2315665D1*
X1299740Y2340039D2*
X1302625Y2341498D1*
X1306936Y2345776D1*
Y2315665D1*
X1739400Y3764675D2*
Y3741727D1*
X1737974Y3737416D1*
X1736515Y3735990D1*
X1733663Y3734531D1*
X1730778D1*
X1727926Y3735990D1*
X1726500Y3737416D1*
X1725041Y3741727D1*
Y3744579D1*
X1748664Y3748890D2*
X1761597D1*
X1765875Y3750316D1*
X1767334Y3751775D1*
X1768760Y3754627D1*
Y3758938D1*
X1767334Y3761790D1*
X1765875Y3763249D1*
X1761597Y3764675D1*
X1748664D1*
Y3734531D1*
X1779482Y3757479D2*
Y3758905D1*
X1780908Y3761790D1*
X1782334Y3763216D1*
X1785219Y3764642D1*
X1790956D1*
X1793808Y3763216D1*
X1795234Y3761790D1*
X1796693Y3758905D1*
Y3756053D1*
X1795234Y3753168D1*
X1792382Y3748890D1*
X1778023Y3734531D1*
X1798119D1*
X1461579Y4585687D2*
Y4562739D1*
X1460153Y4558428D1*
X1458694Y4557002D1*
X1455842Y4555543D1*
X1452957D1*
X1450105Y4557002D1*
X1448679Y4558428D1*
X1447220Y4562739D1*
Y4565591D1*
X1470842Y4569902D2*
X1483775D1*
X1488053Y4571328D1*
X1489512Y4572787D1*
X1490938Y4575639D1*
Y4579950D1*
X1489512Y4582802D1*
X1488053Y4584261D1*
X1483775Y4585687D1*
X1470842D1*
Y4555543D1*
X1503087Y4585654D2*
X1518839D1*
X1510250Y4574180D1*
X1514561D1*
X1517413Y4572754D1*
X1518839Y4571328D1*
X1520298Y4567017D1*
Y4564165D1*
X1518839Y4559854D1*
X1515987Y4556969D1*
X1511676Y4555543D1*
X1507365D1*
X1503087Y4556969D1*
X1501661Y4558428D1*
X1500202Y4561280D1*
X1214110Y1474720D2*
Y1444576D1*
X1231321D1*
X1240584Y1468950D2*
X1243469Y1470409D1*
X1247780Y1474687D1*
Y1444576D1*
X1060897Y1475254D2*
Y1445110D1*
X1078108D1*
X1088831Y1468058D2*
Y1469484D1*
X1090257Y1472369D1*
X1091683Y1473795D1*
X1094568Y1475221D1*
X1100305D1*
X1103157Y1473795D1*
X1104583Y1472369D1*
X1106042Y1469484D1*
Y1466632D1*
X1104583Y1463747D1*
X1101731Y1459469D1*
X1087372Y1445110D1*
X1107468D1*
X967131Y2199183D2*
Y2169039D1*
X984342D1*
X996491Y2199150D2*
X1012242D1*
X1003653Y2187676D1*
X1007964D1*
X1010816Y2186250D1*
X1012242Y2184824D1*
X1013701Y2180513D1*
Y2177661D1*
X1012242Y2173350D1*
X1009390Y2170465D1*
X1005079Y2169039D1*
X1000768D1*
X996491Y2170465D1*
X995065Y2171924D1*
X993605Y2174776D1*
X948452Y1589380D2*
Y1559236D1*
X965663D1*
X989286D2*
Y1589347D1*
X974927Y1569284D1*
X996449D1*
X971840Y3188619D2*
X968988Y3187226D1*
X966103Y3184341D1*
X964677Y3181456D1*
X963218Y3177145D1*
Y3169982D1*
X964677Y3165671D1*
X966103Y3162819D1*
X968988Y3159934D1*
X971840Y3158508D1*
X977577D1*
X980462Y3159934D1*
X983314Y3162819D1*
X984740Y3165671D1*
X986199Y3169982D1*
Y3177145D1*
X984740Y3181456D1*
X983314Y3184341D1*
X980462Y3187226D1*
X977577Y3188619D1*
X971840D1*
X976151Y3164245D2*
X984740Y3155623D1*
X1012674Y3188586D2*
X998348D1*
X996922Y3175686D1*
X998348Y3177112D1*
X1002659Y3178571D1*
X1006937D1*
X1011248Y3177112D1*
X1014133Y3174260D1*
X1015559Y3169949D1*
Y3167097D1*
X1014133Y3162786D1*
X1011248Y3159901D1*
X1006937Y3158475D1*
X1002659D1*
X998348Y3159901D1*
X996922Y3161360D1*
X995463Y3164212D1*
X1588661Y3513336D2*
X1585809Y3511943D1*
X1582924Y3509058D1*
X1581498Y3506173D1*
X1580038Y3501862D1*
Y3494699D1*
X1581498Y3490388D1*
X1582924Y3487536D1*
X1585809Y3484651D1*
X1588661Y3483225D1*
X1594397D1*
X1597283Y3484651D1*
X1600134Y3487536D1*
X1601560Y3490388D1*
X1603020Y3494699D1*
Y3501862D1*
X1601560Y3506173D1*
X1600134Y3509058D1*
X1597283Y3511943D1*
X1594397Y3513336D1*
X1588661D1*
X1592972Y3488962D2*
X1601560Y3480340D1*
X1629494Y3509025D2*
X1628068Y3511877D1*
X1623757Y3513302D1*
X1620905D1*
X1616594Y3511877D1*
X1613709Y3507565D1*
X1612283Y3500403D1*
Y3493240D1*
X1613709Y3487503D1*
X1616594Y3484618D1*
X1620905Y3483192D1*
X1622331D1*
X1626609Y3484618D1*
X1629494Y3487503D1*
X1630920Y3491814D1*
Y3493240D1*
X1629494Y3497551D1*
X1626609Y3500403D1*
X1622331Y3501829D1*
X1620905D1*
X1616594Y3500403D1*
X1613709Y3497551D1*
X1612283Y3493240D1*
X689096Y3798898D2*
X701996D1*
X706307Y3800357D1*
X707766Y3801783D1*
X709192Y3804635D1*
Y3807520D1*
X707766Y3810372D1*
X706307Y3811831D1*
X701996Y3813257D1*
X689096D1*
Y3783113D1*
X699144Y3798898D2*
X709192Y3783113D1*
X718456Y3807487D2*
X721341Y3808946D1*
X725652Y3813224D1*
Y3783113D1*
X1020742Y2569420D2*
X1033642D1*
X1037953Y2570879D1*
X1039412Y2572305D1*
X1040838Y2575157D1*
Y2578042D1*
X1039412Y2580894D1*
X1037953Y2582353D1*
X1033642Y2583779D1*
X1020742D1*
Y2553635D1*
X1030790Y2569420D2*
X1040838Y2553635D1*
X1051561Y2576583D2*
Y2578009D1*
X1052987Y2580894D1*
X1054413Y2582320D1*
X1057298Y2583746D1*
X1063035D1*
X1065887Y2582320D1*
X1067313Y2580894D1*
X1068772Y2578009D1*
Y2575157D1*
X1067313Y2572272D1*
X1064461Y2567994D1*
X1050102Y2553635D1*
X1070198D1*
X848567Y3532372D2*
Y3545272D1*
X847108Y3549583D1*
X845682Y3551042D1*
X842830Y3552468D1*
X839945D1*
X837093Y3551042D1*
X835634Y3549583D1*
X834208Y3545272D1*
Y3532372D1*
X864352D1*
X848567Y3542420D2*
X864352Y3552468D1*
X841404Y3563191D2*
X839978D1*
X837093Y3564617D1*
X835667Y3566043D1*
X834241Y3568928D1*
Y3574665D1*
X835667Y3577517D1*
X837093Y3578943D1*
X839978Y3580402D1*
X842830D1*
X845715Y3578943D1*
X849993Y3576091D1*
X864352Y3561732D1*
Y3581828D1*
X841404Y3592550D2*
X839978D1*
X837093Y3593976D1*
X835667Y3595402D1*
X834241Y3598287D1*
Y3604024D1*
X835667Y3606876D1*
X837093Y3608302D1*
X839978Y3609761D1*
X842830D1*
X845715Y3608302D1*
X849993Y3605450D1*
X864352Y3591091D1*
Y3611187D1*
X1632393Y2352798D2*
X1645293D1*
X1649604Y2354257D1*
X1651063Y2355683D1*
X1652489Y2358535D1*
Y2361420D1*
X1651063Y2364272D1*
X1649604Y2365731D1*
X1645293Y2367157D1*
X1632393D1*
Y2337013D1*
X1642441Y2352798D2*
X1652489Y2337013D1*
X1663212Y2359961D2*
Y2361387D1*
X1664638Y2364272D1*
X1666064Y2365698D1*
X1668949Y2367124D1*
X1674686D1*
X1677538Y2365698D1*
X1678964Y2364272D1*
X1680423Y2361387D1*
Y2358535D1*
X1678964Y2355650D1*
X1676112Y2351372D1*
X1661753Y2337013D1*
X1681849D1*
X1693997Y2367124D2*
X1709749D1*
X1701160Y2355650D1*
X1705471D1*
X1708323Y2354224D1*
X1709749Y2352798D1*
X1711208Y2348487D1*
Y2345635D1*
X1709749Y2341324D1*
X1706897Y2338439D1*
X1702586Y2337013D1*
X1698275D1*
X1693997Y2338439D1*
X1692571Y2339898D1*
X1691112Y2342750D1*
X1673849Y2114280D2*
Y2127180D1*
X1672390Y2131491D1*
X1670964Y2132950D1*
X1668112Y2134376D1*
X1665227D1*
X1662375Y2132950D1*
X1660916Y2131491D1*
X1659490Y2127180D1*
Y2114280D1*
X1689634D1*
X1673849Y2124328D2*
X1689634Y2134376D1*
X1666686Y2145099D2*
X1665260D1*
X1662375Y2146525D1*
X1660949Y2147951D1*
X1659523Y2150836D1*
Y2156573D1*
X1660949Y2159425D1*
X1662375Y2160850D1*
X1665260Y2162310D1*
X1668112D1*
X1670997Y2160850D1*
X1675275Y2157999D1*
X1689634Y2143640D1*
Y2163736D1*
Y2187358D2*
X1659523D1*
X1679586Y2172999D1*
Y2194521D1*
X1742868Y1667710D2*
X1755768D1*
X1760079Y1669169D1*
X1761538Y1670595D1*
X1762964Y1673447D1*
Y1676332D1*
X1761538Y1679184D1*
X1760079Y1680643D1*
X1755768Y1682069D1*
X1742868D1*
Y1651925D1*
X1752916Y1667710D2*
X1762964Y1651925D1*
X1773687Y1674873D2*
Y1676299D1*
X1775113Y1679184D1*
X1776539Y1680610D1*
X1779424Y1682036D1*
X1785161D1*
X1788013Y1680610D1*
X1789439Y1679184D1*
X1790898Y1676299D1*
Y1673447D1*
X1789439Y1670562D1*
X1786587Y1666284D1*
X1772228Y1651925D1*
X1792324D1*
X1818798Y1682036D2*
X1804472D1*
X1803046Y1669136D1*
X1804472Y1670562D1*
X1808783Y1672021D1*
X1813061D1*
X1817372Y1670562D1*
X1820257Y1667710D1*
X1821683Y1663399D1*
Y1660547D1*
X1820257Y1656236D1*
X1817372Y1653351D1*
X1813061Y1651925D1*
X1808783D1*
X1804472Y1653351D1*
X1803046Y1654810D1*
X1801587Y1657662D1*
X1343072Y1786953D2*
X1355971D1*
X1360282Y1788412D1*
X1361742Y1789838D1*
X1363168Y1792690D1*
Y1795575D1*
X1361742Y1798427D1*
X1360282Y1799886D1*
X1355971Y1801312D1*
X1343072D1*
Y1771168D1*
X1353120Y1786953D2*
X1363168Y1771168D1*
X1373890Y1794116D2*
Y1795542D1*
X1375316Y1798427D1*
X1376742Y1799853D1*
X1379627Y1801279D1*
X1385364D1*
X1388216Y1799853D1*
X1389642Y1798427D1*
X1391101Y1795542D1*
Y1792690D1*
X1389642Y1789805D1*
X1386790Y1785527D1*
X1372431Y1771168D1*
X1392527D1*
X1419002Y1797001D2*
X1417576Y1799853D1*
X1413265Y1801279D1*
X1410413D1*
X1406102Y1799853D1*
X1403217Y1795542D1*
X1401791Y1788379D1*
Y1781216D1*
X1403217Y1775479D1*
X1406102Y1772594D1*
X1410413Y1771168D1*
X1411839D1*
X1416117Y1772594D1*
X1419002Y1775479D1*
X1420428Y1779790D1*
Y1781216D1*
X1419002Y1785527D1*
X1416117Y1788379D1*
X1411839Y1789805D1*
X1410413D1*
X1406102Y1788379D1*
X1403217Y1785527D1*
X1401791Y1781216D1*
X1429851Y2896042D2*
X1442751D1*
X1447062Y2897501D1*
X1448521Y2898927D1*
X1449947Y2901779D1*
Y2904664D1*
X1448521Y2907516D1*
X1447062Y2908975D1*
X1442751Y2910401D1*
X1429851D1*
Y2880257D1*
X1439899Y2896042D2*
X1449947Y2880257D1*
X1460670Y2903205D2*
Y2904631D1*
X1462096Y2907516D1*
X1463522Y2908942D1*
X1466407Y2910368D1*
X1472144D1*
X1474996Y2908942D1*
X1476422Y2907516D1*
X1477881Y2904631D1*
Y2901779D1*
X1476422Y2898894D1*
X1473570Y2894616D1*
X1459211Y2880257D1*
X1479307D1*
X1494307D2*
X1508666Y2910368D1*
X1488570D1*
X1665467Y1481203D2*
Y1494102D1*
X1664008Y1498413D1*
X1662582Y1499873D1*
X1659730Y1501299D1*
X1656845D1*
X1653993Y1499873D1*
X1652534Y1498413D1*
X1651108Y1494102D1*
Y1481203D1*
X1681252D1*
X1665467Y1491251D2*
X1681252Y1501298D1*
X1658305Y1512021D2*
X1656879D1*
X1653993Y1513447D1*
X1652568Y1514873D1*
X1651142Y1517758D1*
Y1523495D1*
X1652568Y1526347D1*
X1653993Y1527773D1*
X1656879Y1529232D1*
X1659730D1*
X1662616Y1527773D1*
X1666893Y1524921D1*
X1681252Y1510562D1*
Y1530658D1*
X1651142Y1547084D2*
X1652568Y1542807D1*
X1655419Y1541348D1*
X1658305D1*
X1661156Y1542807D1*
X1662616Y1545659D1*
X1664041Y1551395D1*
X1665467Y1555707D1*
X1668352Y1558558D1*
X1671204Y1559984D1*
X1675515D1*
X1678367Y1558558D1*
X1679826Y1557132D1*
X1681252Y1552821D1*
Y1547084D1*
X1679826Y1542807D1*
X1678367Y1541347D1*
X1675515Y1539922D1*
X1671204D1*
X1668353Y1541347D1*
X1665467Y1544233D1*
X1664041Y1548510D1*
X1662616Y1554247D1*
X1661156Y1557132D1*
X1658305Y1558558D1*
X1655419D1*
X1652568Y1557132D1*
X1651142Y1552821D1*
Y1547084D1*
X1805543Y3574879D2*
X1818443D1*
X1822754Y3576339D1*
X1824213Y3577765D1*
X1825639Y3580616D1*
Y3583502D1*
X1824213Y3586353D1*
X1822754Y3587813D1*
X1818443Y3589239D1*
X1805543D1*
Y3559095D1*
X1815591Y3574879D2*
X1825639Y3559095D1*
X1836362Y3582042D2*
Y3583468D1*
X1837788Y3586353D1*
X1839214Y3587779D1*
X1842099Y3589205D1*
X1847836D1*
X1850688Y3587779D1*
X1852114Y3586353D1*
X1853573Y3583468D1*
Y3580616D1*
X1852114Y3577731D1*
X1849262Y3573454D1*
X1834903Y3559095D1*
X1854999D1*
X1882932Y3579191D2*
X1881473Y3574879D1*
X1878621Y3571994D1*
X1874310Y3570568D1*
X1872884D1*
X1868573Y3571994D1*
X1865721Y3574879D1*
X1864262Y3579191D1*
Y3580616D1*
X1865721Y3584927D1*
X1868573Y3587779D1*
X1872884Y3589205D1*
X1874310D1*
X1878621Y3587779D1*
X1881473Y3584927D1*
X1882932Y3579191D1*
Y3571994D1*
X1881473Y3564831D1*
X1878621Y3560520D1*
X1874310Y3559095D1*
X1871458D1*
X1867147Y3560520D1*
X1865721Y3563406D1*
X1815084Y708094D2*
Y720994D1*
X1813625Y725305D1*
X1812199Y726764D1*
X1809347Y728190D1*
X1806462D1*
X1803610Y726764D1*
X1802151Y725305D1*
X1800725Y720994D1*
Y708094D1*
X1830869D1*
X1815084Y718142D2*
X1830869Y728190D1*
X1800758Y740339D2*
Y756090D1*
X1812232Y747502D1*
Y751813D1*
X1813658Y754664D1*
X1815084Y756090D1*
X1819395Y757550D1*
X1822247D1*
X1826558Y756090D1*
X1829443Y753239D1*
X1830869Y748927D1*
Y744616D1*
X1829443Y740339D1*
X1827984Y738913D1*
X1825132Y737454D1*
X1800758Y775435D2*
X1802184Y771124D1*
X1806495Y768239D1*
X1813658Y766813D1*
X1817969D1*
X1825132Y768239D1*
X1829443Y771124D1*
X1830869Y775435D1*
Y778287D1*
X1829443Y782598D1*
X1825132Y785450D1*
X1817969Y786909D1*
X1813658D1*
X1806495Y785450D1*
X1802184Y782598D1*
X1800758Y778287D1*
Y775435D1*
X1806495Y785450D2*
X1825132Y768239D1*
X1451280Y803277D2*
X1464180D1*
X1468491Y804736D1*
X1469950Y806162D1*
X1471376Y809014D1*
Y811899D1*
X1469950Y814751D1*
X1468491Y816210D1*
X1464180Y817636D1*
X1451280D1*
Y787492D1*
X1461328Y803277D2*
X1471376Y787492D1*
X1483525Y817603D2*
X1499277D1*
X1490688Y806129D1*
X1494999D1*
X1497851Y804703D1*
X1499277Y803277D1*
X1500736Y798966D1*
Y796114D1*
X1499277Y791803D1*
X1496425Y788918D1*
X1492114Y787492D1*
X1487803D1*
X1483525Y788918D1*
X1482099Y790377D1*
X1480640Y793229D1*
X1509999Y811866D2*
X1512884Y813325D1*
X1517195Y817603D1*
Y787492D1*
X1292470Y1480601D2*
Y1493501D1*
X1291011Y1497812D1*
X1289585Y1499271D1*
X1286733Y1500697D1*
X1283848D1*
X1280996Y1499271D1*
X1279537Y1497812D1*
X1278111Y1493501D1*
Y1480601D1*
X1308255D1*
X1292470Y1490649D2*
X1308255Y1500697D1*
X1278144Y1512845D2*
Y1528597D1*
X1289618Y1520008D1*
Y1524319D1*
X1291044Y1527171D1*
X1292470Y1528597D1*
X1296781Y1530056D1*
X1299633D1*
X1303944Y1528597D1*
X1306829Y1525745D1*
X1308255Y1521434D1*
Y1517123D1*
X1306829Y1512845D1*
X1305370Y1511419D1*
X1302518Y1509960D1*
X1285307Y1540779D2*
X1283881D1*
X1280996Y1542205D1*
X1279570Y1543631D1*
X1278144Y1546516D1*
Y1552253D1*
X1279570Y1555105D1*
X1280996Y1556531D1*
X1283881Y1557990D1*
X1286733D1*
X1289618Y1556531D1*
X1293896Y1553679D1*
X1308255Y1539320D1*
Y1559416D1*
X1438748Y3470337D2*
Y3483237D1*
X1437289Y3487548D1*
X1435863Y3489007D1*
X1433011Y3490433D1*
X1430126D1*
X1427274Y3489007D1*
X1425815Y3487548D1*
X1424389Y3483237D1*
Y3470337D1*
X1454533D1*
X1438748Y3480385D2*
X1454533Y3490433D1*
X1424422Y3502581D2*
Y3518333D1*
X1435896Y3509744D1*
Y3514055D1*
X1437322Y3516907D1*
X1438748Y3518333D1*
X1443059Y3519792D1*
X1445911D1*
X1450222Y3518333D1*
X1453107Y3515481D1*
X1454533Y3511170D1*
Y3506859D1*
X1453107Y3502581D1*
X1451648Y3501155D1*
X1448796Y3499696D1*
X1424422Y3531941D2*
Y3547693D1*
X1435896Y3539104D1*
Y3543415D1*
X1437322Y3546267D1*
X1438748Y3547693D1*
X1443059Y3549152D1*
X1445911D1*
X1450222Y3547693D1*
X1453107Y3544841D1*
X1454533Y3540530D1*
Y3536219D1*
X1453107Y3531941D1*
X1451648Y3530515D1*
X1448796Y3529056D1*
X1762898Y1912614D2*
X1775798D1*
X1780109Y1914074D1*
X1781568Y1915499D1*
X1782994Y1918351D1*
Y1921236D1*
X1781568Y1924088D1*
X1780109Y1925547D1*
X1775798Y1926973D1*
X1762898D1*
Y1896829D1*
X1772946Y1912614D2*
X1782994Y1896829D1*
X1795143Y1926940D2*
X1810894D1*
X1802306Y1915466D1*
X1806617D1*
X1809469Y1914040D1*
X1810894Y1912614D1*
X1812354Y1908303D1*
Y1905451D1*
X1810894Y1901140D1*
X1808043Y1898255D1*
X1803732Y1896829D1*
X1799421D1*
X1795143Y1898255D1*
X1793717Y1899714D1*
X1792258Y1902566D1*
X1835976Y1896829D2*
Y1926940D1*
X1821617Y1906877D1*
X1843139D1*
X1364948Y1890083D2*
X1377848D1*
X1382159Y1891542D1*
X1383618Y1892968D1*
X1385044Y1895820D1*
Y1898705D1*
X1383618Y1901557D1*
X1382159Y1903016D1*
X1377848Y1904442D1*
X1364948D1*
Y1874298D1*
X1374996Y1890083D2*
X1385044Y1874298D1*
X1397193Y1904409D2*
X1412945D1*
X1404356Y1892935D1*
X1408667D1*
X1411519Y1891509D1*
X1412945Y1890083D1*
X1414404Y1885772D1*
Y1882920D1*
X1412945Y1878609D1*
X1410093Y1875724D1*
X1405782Y1874298D1*
X1401471D1*
X1397193Y1875724D1*
X1395767Y1877183D1*
X1394308Y1880035D1*
X1440878Y1904409D2*
X1426552D1*
X1425127Y1891509D1*
X1426552Y1892935D1*
X1430863Y1894394D1*
X1435141D1*
X1439452Y1892935D1*
X1442337Y1890083D1*
X1443763Y1885772D1*
Y1882920D1*
X1442337Y1878609D1*
X1439452Y1875724D1*
X1435141Y1874298D1*
X1430863D1*
X1426552Y1875724D1*
X1425127Y1877183D1*
X1423667Y1880035D1*
X1712106Y2093322D2*
X1712107Y2106221D1*
X1710647Y2110532D1*
X1709221Y2111992D1*
X1706370Y2113417D1*
X1703485D1*
X1700633Y2111992D1*
X1699173Y2110532D1*
X1697748Y2106221D1*
X1697747Y2093322D1*
X1727891D1*
X1712107Y2103370D2*
X1727892Y2113417D1*
X1697781Y2125566D2*
Y2141318D1*
X1709255Y2132729D1*
Y2137040D1*
X1710681Y2139892D1*
X1712107Y2141318D1*
X1716418Y2142777D1*
X1719269D1*
X1723580Y2141318D1*
X1726466Y2138466D1*
X1727892Y2134155D1*
Y2129844D1*
X1726466Y2125566D1*
X1725006Y2124140D1*
X1722155Y2122681D1*
X1707796Y2170711D2*
X1712107Y2169251D1*
X1714992Y2166400D1*
X1716418Y2162089D1*
Y2160663D1*
X1714992Y2156352D1*
X1712107Y2153500D1*
X1707796Y2152041D1*
X1706370D1*
X1702059Y2153500D1*
X1699207Y2156352D1*
X1697781Y2160663D1*
Y2162089D1*
X1699207Y2166400D1*
X1702059Y2169251D1*
X1707796Y2170711D1*
X1714992D1*
X1722155Y2169251D1*
X1726466Y2166400D1*
X1727891Y2162088D1*
Y2159237D1*
X1726466Y2154926D1*
X1723580Y2153500D1*
X856590Y2031285D2*
X869490D1*
X873801Y2032744D1*
X875260Y2034170D1*
X876686Y2037022D1*
Y2039907D1*
X875260Y2042759D1*
X873801Y2044218D1*
X869490Y2045644D1*
X856590D1*
Y2015500D1*
X866638Y2031285D2*
X876686Y2015500D1*
X900308D2*
Y2045611D1*
X885949Y2025548D1*
X907471D1*
X925357Y2045611D2*
X921046Y2044185D1*
X918161Y2039874D1*
X916735Y2032711D1*
Y2028400D1*
X918161Y2021237D1*
X921046Y2016926D1*
X925357Y2015500D1*
X928209D1*
X932520Y2016926D1*
X935372Y2021237D1*
X936831Y2028400D1*
Y2032711D1*
X935372Y2039874D1*
X932520Y2044185D1*
X928209Y2045611D1*
X925357D1*
X935372Y2039874D2*
X918161Y2021237D1*
X1322215Y1001200D2*
Y1014100D1*
X1320756Y1018411D1*
X1319330Y1019870D1*
X1316478Y1021296D1*
X1313593D1*
X1310742Y1019870D1*
X1309282Y1018411D1*
X1307856Y1014100D1*
Y1001200D1*
X1338000D1*
X1322215Y1011248D2*
X1338000Y1021296D1*
Y1044918D2*
X1307890D1*
X1327952Y1030559D1*
Y1052081D1*
X1313627Y1061345D2*
X1312167Y1064230D1*
X1307890Y1068541D1*
X1338000D1*
X1774370Y1230294D2*
X1787270D1*
X1791581Y1231753D1*
X1793041Y1233179D1*
X1794467Y1236031D1*
Y1238916D1*
X1793041Y1241768D1*
X1791581Y1243227D1*
X1787270Y1244653D1*
X1774370D1*
Y1214509D1*
X1784418Y1230294D2*
X1794467Y1214509D1*
X1818089D2*
Y1244620D1*
X1803730Y1224557D1*
X1825252D1*
X1835975Y1237457D2*
Y1238883D1*
X1837401Y1241768D1*
X1838827Y1243194D1*
X1841712Y1244620D1*
X1847449D1*
X1850301Y1243194D1*
X1851726Y1241768D1*
X1853186Y1238883D1*
Y1236031D1*
X1851726Y1233146D1*
X1848875Y1228868D1*
X1834516Y1214509D1*
X1854612D1*
X1766569Y545138D2*
X1779469D1*
X1783780Y546597D1*
X1785239Y548023D1*
X1786665Y550875D1*
Y553760D1*
X1785239Y556612D1*
X1783780Y558071D1*
X1779469Y559497D1*
X1766569D1*
Y529353D1*
X1776617Y545138D2*
X1786665Y529353D1*
X1810287D2*
Y559464D1*
X1795928Y539401D1*
X1817450D1*
X1829599Y559464D2*
X1845351D1*
X1836762Y547990D1*
X1841073D1*
X1843925Y546564D1*
X1845351Y545138D1*
X1846810Y540827D1*
Y537975D1*
X1845351Y533664D1*
X1842499Y530779D1*
X1838188Y529353D1*
X1833877D1*
X1829599Y530779D1*
X1828173Y532238D1*
X1826714Y535090D1*
X1550696Y622044D2*
X1563595D1*
X1567907Y623503D1*
X1569366Y624929D1*
X1570792Y627781D1*
Y630666D1*
X1569366Y633517D1*
X1567907Y634977D1*
X1563595Y636403D1*
X1550696D1*
Y606259D1*
X1560744Y622044D2*
X1570792Y606259D1*
X1594414D2*
Y636369D1*
X1580055Y616307D1*
X1601577D1*
X1625200Y606259D2*
Y636369D1*
X1610841Y616307D1*
X1632363D1*
X1115672Y465424D2*
X1128572D1*
X1132883Y466883D1*
X1134342Y468309D1*
X1135768Y471161D1*
Y474046D1*
X1134342Y476898D1*
X1132883Y478357D1*
X1128572Y479783D1*
X1115672D1*
Y449639D1*
X1125720Y465424D2*
X1135768Y449639D1*
X1159391D2*
Y479750D1*
X1145032Y459687D1*
X1166554D1*
X1193028Y479750D2*
X1178702D1*
X1177277Y466850D1*
X1178702Y468276D1*
X1183013Y469735D1*
X1187291D1*
X1191602Y468276D1*
X1194487Y465424D1*
X1195913Y461113D1*
Y458261D1*
X1194487Y453950D1*
X1191602Y451065D1*
X1187291Y449639D1*
X1183013D1*
X1178702Y451065D1*
X1177277Y452524D1*
X1175817Y455376D1*
X725870Y458815D2*
X738770D1*
X743081Y460274D1*
X744540Y461700D1*
X745966Y464552D1*
Y467437D1*
X744540Y470289D1*
X743081Y471748D1*
X738770Y473174D1*
X725870D1*
Y443030D1*
X735918Y458815D2*
X745966Y443030D1*
X769589D2*
Y473141D1*
X755230Y453078D1*
X776752D1*
X803226Y468863D2*
X801800Y471715D1*
X797489Y473141D1*
X794637D1*
X790326Y471715D1*
X787441Y467404D1*
X786015Y460241D1*
Y453078D1*
X787441Y447341D1*
X790326Y444456D1*
X794637Y443030D1*
X796063D1*
X800341Y444456D1*
X803226Y447341D1*
X804652Y451652D1*
Y453078D1*
X803226Y457389D1*
X800341Y460241D1*
X796063Y461667D1*
X794637D1*
X790326Y460241D1*
X787441Y457389D1*
X786015Y453078D1*
X1442078Y620641D2*
X1454978D1*
X1459289Y622100D1*
X1460748Y623526D1*
X1462174Y626378D1*
Y629263D1*
X1460748Y632115D1*
X1459289Y633574D1*
X1454978Y635000D1*
X1442078D1*
Y604856D1*
X1452126Y620641D2*
X1462174Y604856D1*
X1485796D2*
Y634967D1*
X1471437Y614904D1*
X1492959D1*
X1507960Y604856D2*
X1522319Y634967D1*
X1502223D1*
X1310976Y867411D2*
X1323876D1*
X1328187Y868870D1*
X1329646Y870296D1*
X1331072Y873148D1*
Y876033D1*
X1329646Y878885D1*
X1328187Y880344D1*
X1323876Y881770D1*
X1310976D1*
Y851626D1*
X1321024Y867411D2*
X1331072Y851626D1*
X1354695D2*
Y881737D1*
X1340336Y861674D1*
X1361858D1*
X1378284Y881737D2*
X1374006Y880311D1*
X1372547Y877459D1*
Y874574D1*
X1374006Y871722D1*
X1376858Y870263D1*
X1382595Y868837D1*
X1386906Y867411D1*
X1389758Y864526D1*
X1391184Y861674D1*
Y857363D1*
X1389758Y854511D1*
X1388332Y853052D1*
X1384021Y851626D1*
X1378284D1*
X1374006Y853052D1*
X1372547Y854511D1*
X1371121Y857363D1*
Y861674D1*
X1372547Y864526D1*
X1375432Y867411D1*
X1379710Y868837D1*
X1385447Y870263D1*
X1388332Y871722D1*
X1389758Y874574D1*
Y877459D1*
X1388332Y880311D1*
X1384021Y881737D1*
X1378284D1*
X831576Y1801378D2*
Y1814277D1*
X830117Y1818588D1*
X828691Y1820048D1*
X825839Y1821474D1*
X822954D1*
X820102Y1820048D1*
X818643Y1818588D1*
X817217Y1814277D1*
Y1801378D1*
X847361D1*
X831576Y1811426D2*
X847361Y1821473D1*
Y1845096D2*
X817251D1*
X837313Y1830737D1*
Y1852259D1*
X827265Y1880193D2*
X831576Y1878733D1*
X834461Y1875882D1*
X835887Y1871571D1*
Y1870145D1*
X834461Y1865834D1*
X831576Y1862982D1*
X827265Y1861523D1*
X825839D1*
X821528Y1862982D1*
X818676Y1865834D1*
X817251Y1870145D1*
Y1871571D1*
X818676Y1875882D1*
X821528Y1878733D1*
X827265Y1880193D1*
X834461D1*
X841624Y1878733D1*
X845935Y1875882D1*
X847361Y1871570D1*
Y1868719D1*
X845935Y1864408D1*
X843050Y1862982D1*
X721701Y882769D2*
Y895669D1*
X720242Y899980D1*
X718816Y901439D1*
X715964Y902865D1*
X713079D1*
X710227Y901439D1*
X708768Y899980D1*
X707342Y895669D1*
Y882769D1*
X737486D1*
X721701Y892817D2*
X737486Y902865D1*
X707375Y929339D2*
Y915013D1*
X720275Y913587D1*
X718849Y915013D1*
X717390Y919324D1*
Y923602D1*
X718849Y927913D1*
X721701Y930798D1*
X726012Y932224D1*
X728864D1*
X733175Y930798D1*
X736060Y927913D1*
X737486Y923602D1*
Y919324D1*
X736060Y915013D1*
X734601Y913587D1*
X731749Y912128D1*
X707375Y950110D2*
X708801Y945799D1*
X713112Y942914D1*
X720275Y941488D1*
X724586D1*
X731749Y942914D1*
X736060Y945799D1*
X737486Y950110D1*
Y952962D1*
X736060Y957273D1*
X731749Y960125D1*
X724586Y961584D1*
X720275D1*
X713112Y960125D1*
X708801Y957273D1*
X707375Y952962D1*
Y950110D1*
X713112Y960125D2*
X731749Y942914D1*
X801279Y1381898D2*
X814179D1*
X818490Y1383357D1*
X819949Y1384783D1*
X821375Y1387635D1*
Y1390520D1*
X819949Y1393372D1*
X818490Y1394831D1*
X814179Y1396257D1*
X801279D1*
Y1366113D1*
X811327Y1381898D2*
X821375Y1366113D1*
X847849Y1396224D2*
X833523D1*
X832098Y1383324D1*
X833523Y1384750D1*
X837834Y1386209D1*
X842112D1*
X846423Y1384750D1*
X849308Y1381898D1*
X850734Y1377587D1*
Y1374735D1*
X849308Y1370424D1*
X846423Y1367539D1*
X842112Y1366113D1*
X837834D1*
X833523Y1367539D1*
X832098Y1368998D1*
X830638Y1371850D1*
X859998Y1390487D2*
X862883Y1391946D1*
X867194Y1396224D1*
Y1366113D1*
X1788830Y1060785D2*
X1801730D1*
X1806041Y1062244D1*
X1807500Y1063670D1*
X1808926Y1066522D1*
Y1069407D1*
X1807500Y1072259D1*
X1806041Y1073718D1*
X1801730Y1075144D1*
X1788830D1*
Y1045000D1*
X1798878Y1060785D2*
X1808926Y1045000D1*
X1835401Y1075111D2*
X1821075D1*
X1819649Y1062211D1*
X1821075Y1063637D1*
X1825386Y1065096D1*
X1829664D1*
X1833975Y1063637D1*
X1836860Y1060785D1*
X1838286Y1056474D1*
Y1053622D1*
X1836860Y1049311D1*
X1833975Y1046426D1*
X1829664Y1045000D1*
X1825386D1*
X1821075Y1046426D1*
X1819649Y1047885D1*
X1818190Y1050737D1*
X1849008Y1067948D2*
Y1069374D1*
X1850434Y1072259D1*
X1851860Y1073685D1*
X1854745Y1075111D1*
X1860482D1*
X1863334Y1073685D1*
X1864760Y1072259D1*
X1866219Y1069374D1*
Y1066522D1*
X1864760Y1063637D1*
X1861908Y1059359D1*
X1847549Y1045000D1*
X1867645D1*
X1464780Y1002084D2*
X1477680D1*
X1481991Y1003543D1*
X1483450Y1004969D1*
X1484876Y1007821D1*
Y1010706D1*
X1483450Y1013558D1*
X1481991Y1015017D1*
X1477680Y1016443D1*
X1464780D1*
Y986299D1*
X1474828Y1002084D2*
X1484876Y986299D1*
X1511351Y1016410D2*
X1497025D1*
X1495599Y1003510D1*
X1497025Y1004936D1*
X1501336Y1006395D1*
X1505614D1*
X1509925Y1004936D1*
X1512810Y1002084D1*
X1514236Y997773D1*
Y994921D1*
X1512810Y990610D1*
X1509925Y987725D1*
X1505614Y986299D1*
X1501336D1*
X1497025Y987725D1*
X1495599Y989184D1*
X1494140Y992036D1*
X1526384Y1016410D2*
X1542136D1*
X1533547Y1004936D1*
X1537858D1*
X1540710Y1003510D1*
X1542136Y1002084D1*
X1543595Y997773D1*
Y994921D1*
X1542136Y990610D1*
X1539284Y987725D1*
X1534973Y986299D1*
X1530662D1*
X1526384Y987725D1*
X1524959Y989184D1*
X1523499Y992036D1*
X1762509Y1795804D2*
Y1808704D1*
X1761050Y1813015D1*
X1759624Y1814474D1*
X1756772Y1815900D1*
X1753887D1*
X1751035Y1814474D1*
X1749576Y1813015D1*
X1748150Y1808704D1*
Y1795804D1*
X1778294D1*
X1762509Y1805852D2*
X1778294Y1815900D1*
X1748184Y1842374D2*
Y1828048D1*
X1761083Y1826622D1*
X1759658Y1828048D1*
X1758198Y1832359D1*
Y1836637D1*
X1759658Y1840948D1*
X1762509Y1843833D1*
X1766820Y1845259D1*
X1769672D1*
X1773983Y1843833D1*
X1776868Y1840948D1*
X1778294Y1836637D1*
Y1832359D1*
X1776868Y1828048D1*
X1775409Y1826622D1*
X1772557Y1825163D1*
X1778294Y1868882D2*
X1748184D1*
X1768246Y1854523D1*
Y1876045D1*
X967361Y926952D2*
Y939852D1*
X965902Y944163D1*
X964476Y945622D1*
X961624Y947048D1*
X958739D1*
X955887Y945622D1*
X954428Y944163D1*
X953002Y939852D1*
Y926952D1*
X983146D1*
X967361Y937000D2*
X983146Y947048D1*
X953035Y973523D2*
Y959197D1*
X965935Y957771D1*
X964509Y959197D1*
X963050Y963508D1*
Y967786D1*
X964509Y972097D1*
X967361Y974982D1*
X971672Y976408D1*
X974524D1*
X978835Y974982D1*
X981720Y972097D1*
X983146Y967786D1*
Y963508D1*
X981720Y959197D1*
X980261Y957771D1*
X977409Y956312D1*
X953035Y1002882D2*
Y988556D1*
X965935Y987130D1*
X964509Y988556D1*
X963050Y992867D1*
Y997145D1*
X964509Y1001456D1*
X967361Y1004341D1*
X971672Y1005767D1*
X974524D1*
X978835Y1004341D1*
X981720Y1001456D1*
X983146Y997145D1*
Y992867D1*
X981720Y988556D1*
X980261Y987130D1*
X977409Y985671D1*
X841012Y518427D2*
Y531327D1*
X839553Y535638D1*
X838127Y537097D1*
X835275Y538523D1*
X832390D1*
X829538Y537097D1*
X828079Y535638D1*
X826653Y531327D1*
Y518427D1*
X856797D1*
X841012Y528475D2*
X856797Y538523D1*
X826686Y564998D2*
Y550672D1*
X839586Y549246D1*
X838160Y550672D1*
X836701Y554983D1*
Y559261D1*
X838160Y563572D1*
X841012Y566457D1*
X845323Y567883D1*
X848175D1*
X852486Y566457D1*
X855371Y563572D1*
X856797Y559261D1*
Y554983D1*
X855371Y550672D1*
X853912Y549246D1*
X851060Y547787D1*
X830964Y594357D2*
X828112Y592931D1*
X826686Y588620D1*
Y585768D1*
X828112Y581457D1*
X832423Y578572D1*
X839586Y577146D1*
X846749D1*
X852486Y578572D1*
X855371Y581457D1*
X856797Y585768D1*
Y587194D1*
X855371Y591472D1*
X852486Y594357D1*
X848175Y595783D1*
X846749D1*
X842438Y594357D1*
X839586Y591472D1*
X838160Y587194D1*
Y585768D1*
X839586Y581457D1*
X842438Y578572D1*
X846749Y577146D1*
X490270Y4399048D2*
Y4377526D1*
X491696Y4373215D1*
X494581Y4370363D1*
X498892Y4368904D1*
X501744D1*
X506055Y4370363D1*
X508940Y4373215D1*
X510366Y4377526D1*
Y4399048D1*
X519629Y4393278D2*
X522514Y4394737D1*
X526825Y4399015D1*
Y4368904D1*
X1024228Y4264788D2*
Y4243266D1*
X1025654Y4238955D1*
X1028539Y4236104D1*
X1032850Y4234644D1*
X1035702D1*
X1040013Y4236104D1*
X1042898Y4238955D1*
X1044324Y4243266D1*
Y4264788D1*
X1055046Y4257592D2*
Y4259018D1*
X1056472Y4261903D1*
X1057898Y4263329D1*
X1060783Y4264755D1*
X1066520D1*
X1069372Y4263329D1*
X1070798Y4261903D1*
X1072257Y4259018D1*
Y4256166D1*
X1070798Y4253281D1*
X1067946Y4249003D1*
X1053587Y4234644D1*
X1073683D1*
X641909Y2608800D2*
Y2587278D1*
X643335Y2582967D1*
X646220Y2580115D1*
X650531Y2578656D1*
X653383D1*
X657694Y2580115D1*
X660579Y2582967D1*
X662005Y2587278D1*
Y2608800D1*
X674154Y2608767D2*
X689905D1*
X681316Y2597293D1*
X685627D1*
X688479Y2595867D1*
X689905Y2594441D1*
X691364Y2590130D1*
Y2587278D1*
X689905Y2582967D1*
X687053Y2580082D1*
X682742Y2578656D1*
X678431D1*
X674154Y2580082D1*
X672728Y2581541D1*
X671268Y2584393D1*
X518148Y4574602D2*
Y4553080D1*
X519574Y4548769D1*
X522459Y4545917D1*
X526770Y4544458D1*
X529622D1*
X533933Y4545917D1*
X536818Y4548769D1*
X538244Y4553080D1*
Y4574602D1*
X547507Y4568832D2*
X550392Y4570291D1*
X554703Y4574569D1*
Y4544458D1*
X572589Y4574569D2*
X568278Y4573143D1*
X565393Y4568832D1*
X563967Y4561669D1*
Y4557358D1*
X565393Y4550195D1*
X568278Y4545884D1*
X572589Y4544458D1*
X575441D1*
X579752Y4545884D1*
X582604Y4550195D1*
X584063Y4557358D1*
Y4561669D1*
X582604Y4568832D1*
X579752Y4573143D1*
X575441Y4574569D1*
X572589D1*
X582604Y4568832D2*
X565393Y4550195D1*
X929010Y4455796D2*
Y4434274D1*
X930436Y4429963D1*
X933321Y4427111D1*
X937632Y4425652D1*
X940484D1*
X944795Y4427111D1*
X947680Y4429963D1*
X949106Y4434274D1*
Y4455796D1*
X959829Y4448600D2*
Y4450025D1*
X961255Y4452911D1*
X962681Y4454336D1*
X965566Y4455762D1*
X971303D1*
X974155Y4454336D1*
X975581Y4452911D1*
X977040Y4450025D1*
Y4447174D1*
X975581Y4444288D1*
X972729Y4440011D1*
X958370Y4425652D1*
X978466D1*
X1006400Y4445748D2*
X1004940Y4441437D1*
X1002088Y4438552D1*
X997777Y4437126D1*
X996352D1*
X992040Y4438552D1*
X989189Y4441437D1*
X987729Y4445748D1*
Y4447174D1*
X989189Y4451485D1*
X992040Y4454336D1*
X996352Y4455762D1*
X997777D1*
X1002088Y4454336D1*
X1004940Y4451485D1*
X1006400Y4445748D1*
Y4438552D1*
X1004940Y4431389D1*
X1002088Y4427078D1*
X997777Y4425652D1*
X994926D1*
X990615Y4427078D1*
X989189Y4429963D1*
X1077362Y1547202D2*
D103*
Y1495536D1*
X1051562Y1521336D2*
X1103228D1*
X1277083Y1931830D2*
D105*
Y1906981D1*
X1317275D1*
Y1931830D1*
X1296228Y1906981D2*
Y1922279D1*
X1277083Y1944181D2*
X1317275D1*
X1277083Y1969930D2*
X1317275D1*
X1277083Y1956533D2*
Y1983327D1*
Y1995679D2*
X1317275Y1995678D1*
X1277083Y2022473D2*
X1317275D1*
X1296228Y1995679D2*
Y2022473D1*
X1277083Y2059674D2*
Y2034825D1*
X1317275D1*
Y2059674D1*
X1296228Y2034825D2*
Y2050123D1*
Y2072025D2*
Y2089225D1*
X1294283Y2094973D1*
X1292382Y2096919D1*
X1288579Y2098820D1*
X1284732D1*
X1280930Y2096919D1*
X1278984Y2094973D1*
X1277083Y2089225D1*
Y2072025D1*
X1317275D1*
X1296228Y2085422D2*
X1317275Y2098820D1*
X1277083Y2150052D2*
X1317275Y2159647D1*
X1277083Y2169197D1*
X1317275Y2178748D1*
X1277083Y2188343D1*
X1317275Y2231336D2*
X1277083Y2215993D1*
X1317275Y2200694D1*
X1303878Y2206442D2*
Y2225588D1*
X1277083Y2243687D2*
X1296228Y2258986D1*
X1317275D1*
X1277083Y2274284D2*
X1296228Y2258986D1*
X1462533Y1425583D2*
D106*
Y1371994D1*
Y1410285D2*
X1474029Y1421781D1*
X1481722Y1425583D1*
X1493130D1*
X1500824Y1421781D1*
X1504626Y1410285D1*
Y1371994D1*
Y1410285D2*
X1516122Y1421781D1*
X1523816Y1425583D1*
X1535223D1*
X1542917Y1421781D1*
X1546808Y1410285D1*
Y1371994D1*
X1571511Y1452378D2*
X1575313Y1448576D1*
X1579204Y1452378D1*
X1575313Y1456269D1*
X1571511Y1452378D1*
X1575313Y1425583D2*
Y1371994D1*
X1649891Y1414087D2*
X1642198Y1421781D1*
X1634504Y1425583D1*
X1623097D1*
X1615403Y1421781D1*
X1607798Y1414087D1*
X1603907Y1402591D1*
Y1394986D1*
X1607798Y1383490D1*
X1615403Y1375885D1*
X1623097Y1371994D1*
X1634504D1*
X1642198Y1375885D1*
X1649891Y1383490D1*
X1674594Y1425583D2*
Y1371994D1*
Y1402591D2*
X1678485Y1414087D1*
X1686090Y1421781D1*
X1693784Y1425583D1*
X1705280D1*
X1749084D2*
X1741479Y1421781D1*
X1733785Y1414087D1*
X1729982Y1402591D1*
Y1394986D1*
X1733785Y1383490D1*
X1741479Y1375885D1*
X1749084Y1371994D1*
X1760580D1*
X1768273Y1375885D1*
X1775878Y1383490D1*
X1779769Y1394986D1*
Y1402591D1*
X1775878Y1414087D1*
X1768273Y1421781D1*
X1760580Y1425583D1*
X1749084D1*
X1429137Y1346116D2*
Y1265732D1*
X1463625D1*
X1475121Y1269623D1*
X1478923Y1273425D1*
X1482726Y1281030D1*
Y1292526D1*
X1478923Y1300220D1*
X1475121Y1304022D1*
X1463625Y1307825D1*
X1475121Y1311716D1*
X1478923Y1315518D1*
X1482726Y1323124D1*
Y1330817D1*
X1478923Y1338422D1*
X1475121Y1342313D1*
X1463625Y1346116D1*
X1429137D1*
Y1307825D2*
X1463625D1*
X1507429Y1319321D2*
Y1265732D1*
Y1296329D2*
X1511320Y1307825D1*
X1518925Y1315518D1*
X1526618Y1319321D1*
X1538114D1*
X1608713D2*
Y1265732D1*
Y1307825D2*
X1601108Y1315518D1*
X1593414Y1319321D1*
X1582007D1*
X1574313Y1315518D1*
X1566708Y1307825D1*
X1562817Y1296329D1*
Y1288724D1*
X1566708Y1277228D1*
X1574313Y1269623D1*
X1582007Y1265732D1*
X1593414D1*
X1601108Y1269623D1*
X1608713Y1277228D1*
X1633416Y1346116D2*
X1637218Y1342313D1*
X1641109Y1346116D1*
X1637218Y1350007D1*
X1633416Y1346116D1*
X1637218Y1319321D2*
Y1265732D1*
X1711708Y1346116D2*
Y1265732D1*
Y1307825D2*
X1704103Y1315518D1*
X1696409Y1319321D1*
X1684913D1*
X1677308Y1315518D1*
X1669615Y1307825D1*
X1665812Y1296329D1*
Y1288724D1*
X1669615Y1277228D1*
X1677308Y1269623D1*
X1684913Y1265732D1*
X1696409D1*
X1704103Y1269623D1*
X1711708Y1277228D1*
X1778504Y1307825D2*
X1774701Y1315518D1*
X1763205Y1319321D1*
X1751709D1*
X1740213Y1315518D1*
X1736411Y1307825D1*
X1740213Y1300220D1*
X1747907Y1296329D1*
X1767008Y1292526D1*
X1774701Y1288724D1*
X1778504Y1281030D1*
Y1277228D1*
X1774701Y1269623D1*
X1763205Y1265732D1*
X1751709D1*
X1740213Y1269623D1*
X1736411Y1277228D1*
X830477Y2859249D2*
D107*
X832854Y2854440D1*
X837662Y2849687D1*
X842416Y2847255D1*
X849601Y2844879D1*
X861594D1*
X868724Y2847255D1*
X873532Y2849687D1*
X878285Y2854440D1*
X880717Y2859249D1*
Y2868810D1*
X878285Y2873563D1*
X873532Y2878372D1*
X868724Y2880748D1*
X861594Y2883125D1*
X849601D1*
X842416Y2880748D1*
X837662Y2878372D1*
X832854Y2873563D1*
X830477Y2868810D1*
Y2859249D1*
Y2898564D2*
X880717D1*
X830477Y2914003D2*
X832854Y2916380D1*
X830477Y2918812D1*
X828045Y2916380D1*
X830477Y2914003D1*
X847224Y2916380D2*
X880717D1*
X847224Y2934251D2*
X880717Y2948621D1*
X847224Y2962936D1*
X861594Y2978375D2*
Y3007060D1*
X856786D1*
X851977Y3004684D1*
X849601Y3002307D1*
X847224Y2997499D1*
Y2990313D1*
X849601Y2985560D1*
X854409Y2980752D1*
X861594Y2978375D1*
X866347D1*
X873532Y2980752D1*
X878285Y2985560D1*
X880717Y2990313D1*
Y2997498D1*
X878285Y3002307D1*
X873532Y3007060D1*
X847224Y3022499D2*
X880717D1*
X861594D2*
X854409Y3024931D1*
X849601Y3029684D1*
X847224Y3034493D1*
Y3041678D1*
X848375Y3127574D2*
X843622Y3125197D1*
X838813Y3120389D1*
X836437Y3115636D1*
Y3106074D1*
X838813Y3101266D1*
X843622Y3096512D1*
X848375Y3094081D1*
X855560Y3091704D1*
X867553D1*
X874683Y3094081D1*
X879492Y3096512D1*
X884245Y3101266D1*
X886677Y3106074D1*
Y3115636D1*
X884245Y3120389D1*
X879492Y3125197D1*
X874683Y3127574D1*
X867553D1*
Y3115636D1*
X836437Y3143013D2*
X838813Y3145390D1*
X836437Y3147822D1*
X834005Y3145390D1*
X836437Y3143013D1*
X853183Y3145390D2*
X886677D1*
X836437Y3163261D2*
X886677D1*
X836437Y3178700D2*
X886677D1*
X867553Y3194139D2*
Y3222824D1*
X862745D1*
X857936Y3220448D1*
X855560Y3218071D1*
X853183Y3213262D1*
Y3206077D1*
X855560Y3201324D1*
X860368Y3196516D1*
X867553Y3194139D1*
X872307D1*
X879492Y3196516D1*
X884245Y3201324D1*
X886677Y3206077D1*
Y3213262D1*
X884245Y3218071D1*
X879492Y3222824D1*
X836437Y3245448D2*
X877115D1*
X884245Y3247825D1*
X886677Y3252633D1*
Y3257387D1*
X853183Y3238263D2*
Y3255010D1*
M02*
